<svg width="26" height="41" viewBox="0 0 26 41" fill="none" xmlns="http://www.w3.org/2000/svg">
<path d="M22.2504 12.6545L21.5134 0.692793C21.49 0.303098 21.1667 -0.000735674 20.7764 1.33798e-06H6.92055C6.53021 -0.000735674 6.20693 0.303098 6.18353 0.692793L5.44652 12.6545C4.17517 14.01 3.25197 15.654 2.75643 17.4451H0.737012C0.329997 17.4451 0 17.7751 0 18.1821V23.1422C0 23.5492 0.329997 23.8792 0.737012 23.8792H2.85961C3.37856 25.5469 4.2708 27.0743 5.46863 28.3455L6.20564 40.3072C6.22904 40.6969 6.55232 41.0007 6.94266 41H20.7764C21.1667 41.0007 21.49 40.6969 21.5134 40.3072L22.2504 28.3455C26.4069 23.9409 26.4069 17.0591 22.2504 12.6545ZM2.35107 22.3978H1.47402V18.9117H2.35107V22.3978ZM7.61334 1.46666H20.0394L20.629 11.2542C16.5839 8.23971 11.0393 8.23971 6.99425 11.2542L7.61334 1.46666ZM20.0394 39.5186H7.61334L7.02373 29.7311C11.0688 32.7456 16.6134 32.7456 20.6585 29.7311L20.0394 39.5186ZM13.8411 30.5197C8.3053 30.5197 3.81772 26.0321 3.81772 20.4963C3.81772 14.9605 8.3053 10.4729 13.8411 10.4729C19.3769 10.4729 23.8645 14.9605 23.8645 20.4963C23.8604 26.0304 19.3751 30.5156 13.8411 30.5197Z" fill="black"/>
<path d="M13.8485 11.6079C13.846 11.6079 13.8436 11.6079 13.8411 11.6079C8.93672 11.616 4.96414 15.592 4.96008 20.4963C4.96008 25.4052 8.93958 29.3847 13.8485 29.3847C18.7573 29.3847 22.7368 25.4052 22.7368 20.4963C22.7368 15.5873 18.7573 11.6079 13.8485 11.6079ZM14.5855 27.8664V26.6504C14.5855 26.2433 14.2555 25.9134 13.8485 25.9134C13.4414 25.9134 13.1114 26.2433 13.1114 26.6504V27.8664C9.60621 27.5101 6.83467 24.7386 6.47833 21.2333H7.70177C8.10878 21.2333 8.43878 20.9033 8.43878 20.4963C8.43878 20.0893 8.10878 19.7593 7.70177 19.7593H6.47096C6.8273 16.2541 9.59884 13.4825 13.1041 13.1262V14.3496C13.1041 14.7566 13.4341 15.0866 13.8411 15.0866C14.2481 15.0866 14.5781 14.7566 14.5781 14.3496V13.1262C18.0833 13.4825 20.8549 16.2541 21.2112 19.7593H19.9951C19.5881 19.7593 19.2581 20.0893 19.2581 20.4963C19.2581 20.9033 19.5881 21.2333 19.9951 21.2333H21.2186C20.8622 24.7386 18.0907 27.5101 14.5855 27.8664Z" fill="black"/>
<path d="M13.841 19.7593H10.097C9.68998 19.7593 9.35999 20.0893 9.35999 20.4963C9.35999 20.9033 9.68998 21.2333 10.097 21.2333H13.104V23.1348C13.104 23.5418 13.434 23.8718 13.841 23.8718C14.248 23.8718 14.578 23.5418 14.578 23.1348V20.4963C14.578 20.0893 14.248 19.7593 13.841 19.7593Z" fill="black"/>
</svg>
