<svg width="126" height="40" viewBox="0 0 126 40" fill="none" xmlns="http://www.w3.org/2000/svg">
<mask id="mask0_2060_2758" style="mask-type:luminance" maskUnits="userSpaceOnUse" x="0" y="0" width="126" height="40">
<path d="M0.150024 0H125.797V40H0.150024V0Z" fill="white"/>
</mask>
<g mask="url(#mask0_2060_2758)">
<path d="M115.792 0H10.1617C9.77635 0 9.3952 0 9.01195 0.002C8.69065 0.004 8.37145 0.01 8.047 0.015C7.34245 0.022 6.63895 0.081 5.9428 0.19C5.24846 0.302207 4.57589 0.513588 3.9478 0.817C3.00339 1.27739 2.18603 1.94301 1.56182 2.76004C0.93761 3.57706 0.524087 4.52254 0.354701 5.52C0.237865 6.18171 0.175027 6.85105 0.166751 7.522C0.156251 7.829 0.156251 8.137 0.151001 8.443V31.56C0.156251 31.87 0.157301 32.17 0.166751 32.481C0.175151 33.152 0.238151 33.821 0.355751 34.483C0.471251 35.146 0.691751 35.789 1.01095 36.388C1.3291 36.985 1.74595 37.53 2.24785 38C2.74424 38.4771 3.31784 38.8751 3.94675 39.179C4.5752 39.4831 5.24807 39.6954 5.9428 39.809C6.63895 39.918 7.3414 39.977 8.047 39.986C8.3725 39.993 8.69065 39.997 9.01195 39.997C9.39625 39.999 9.77635 39.999 10.1617 39.999H115.792C116.17 39.999 116.552 39.999 116.93 39.997C117.249 39.997 117.578 39.993 117.898 39.987C118.601 39.978 119.304 39.919 119.998 39.809C120.695 39.6947 121.37 39.4824 122.001 39.179C122.63 38.875 123.203 38.4769 123.699 38C124.199 37.5272 124.618 36.9826 124.94 36.386C125.257 35.786 125.477 35.144 125.59 34.481C125.707 33.8192 125.772 33.15 125.785 32.479C125.789 32.169 125.789 31.869 125.789 31.558C125.797 31.194 125.797 30.833 125.797 30.464V9.536C125.797 9.17 125.797 8.806 125.789 8.444C125.789 8.138 125.789 7.83 125.785 7.524C125.772 6.85268 125.707 6.18318 125.59 5.521C125.476 4.8589 125.256 4.21722 124.939 3.618C124.291 2.41519 123.264 1.43599 122.001 0.818C121.37 0.515176 120.695 0.303845 119.998 0.191C119.304 0.081 118.601 0.022 117.898 0.015C117.578 0.01 117.249 0.004 116.93 0.002C116.552 0 116.169 0 115.792 0Z" fill="#A6A6A6"/>
<path d="M9.01713 39.125C8.69688 39.125 8.38503 39.121 8.06793 39.115C7.41007 39.1066 6.75377 39.0518 6.10443 38.951C5.49947 38.8516 4.91343 38.6669 4.36563 38.403C3.82265 38.1414 3.32738 37.7984 2.89878 37.387C2.46415 36.9801 2.10237 36.5082 1.82778 35.99C1.5496 35.4687 1.35696 34.9099 1.25658 34.333C1.14874 33.7131 1.09047 33.0863 1.08228 32.458C1.07493 32.248 1.06653 31.545 1.06653 31.545V8.445C1.06653 8.445 1.07598 7.753 1.08228 7.55C1.0901 6.92272 1.14802 6.29691 1.25553 5.678C1.35664 5.09969 1.54922 4.53932 1.82673 4.016C2.10027 3.49818 2.46019 3.02605 2.89248 2.618C3.76158 1.78673 4.88429 1.23828 6.10023 1.051C6.75123 0.95 7.41063 0.895 8.07003 0.887L9.01713 0.875H116.925L117.883 0.888C118.537 0.895 119.189 0.949 119.834 1.05C120.444 1.14878 121.036 1.33346 121.589 1.598C122.678 2.13288 123.565 2.97908 124.124 4.018C124.398 4.53741 124.588 5.09342 124.686 5.667C124.795 6.291 124.856 6.922 124.869 7.554C124.872 7.837 124.872 8.142 124.872 8.444C124.88 8.819 124.88 9.176 124.88 9.536V30.465C124.88 30.828 124.88 31.183 124.872 31.54C124.872 31.865 124.872 32.163 124.868 32.47C124.856 33.091 124.796 33.71 124.689 34.323C124.592 34.9041 124.4 35.4675 124.122 35.993C123.845 36.506 123.485 36.973 123.056 37.379C122.626 37.7927 122.13 38.1378 121.586 38.401C121.034 38.6672 120.444 38.8526 119.834 38.951C119.185 39.051 118.529 39.106 117.872 39.114C117.564 39.121 117.242 39.125 116.93 39.125L115.792 39.127L9.01713 39.125Z" fill="black"/>
<path d="M26.1574 20.3C26.1689 19.4656 26.4018 18.6475 26.8343 17.9218C27.2668 17.1961 27.8849 16.5862 28.6312 16.149C28.157 15.504 27.5314 14.9732 26.8042 14.5986C26.077 14.224 25.2681 14.016 24.4417 13.991C22.6777 13.815 20.9683 14.996 20.0695 14.996C19.1539 14.996 17.77 14.008 16.2811 14.038C15.3175 14.0676 14.3784 14.3345 13.5553 14.8126C12.7322 15.2907 12.0532 15.9637 11.5845 16.766C9.55376 20.114 11.0689 25.035 13.0135 27.742C13.9869 29.067 15.124 30.547 16.6129 30.495C18.0693 30.437 18.6132 29.61 20.3719 29.61C22.1128 29.61 22.6231 30.495 24.1414 30.462C25.7049 30.437 26.6887 29.13 27.6274 27.792C28.3273 26.8479 28.8659 25.8044 29.2234 24.7C28.315 24.3346 27.5398 23.7224 26.9945 22.9399C26.4492 22.1573 26.1581 21.2392 26.1574 20.3ZM23.2888 12.21C24.141 11.2361 24.561 9.98411 24.4596 8.72002C23.1575 8.8502 21.9548 9.44291 21.0912 10.38C20.669 10.8375 20.3457 11.3697 20.1396 11.9462C19.9335 12.5227 19.8486 13.1323 19.89 13.74C20.5411 13.7465 21.1853 13.6122 21.7741 13.3471C22.3628 13.0821 22.8807 12.6933 23.2888 12.21ZM44.5671 27.14H39.5985L38.4046 30.496H36.2994L41.0076 18.078H43.1947L47.9019 30.496H45.7609L44.5671 27.14ZM40.1119 25.59H44.0515L42.109 20.144H42.0555L40.1119 25.59ZM58.068 25.97C58.068 28.783 56.4867 30.59 54.1 30.59C53.4958 30.62 52.8949 30.4875 52.3661 30.2075C51.8373 29.9276 51.4019 29.5116 51.1096 29.007H51.0645V33.491H49.1115V21.442H51.0015V22.948H51.0361C51.3418 22.4457 51.7847 22.0317 52.3178 21.75C52.8508 21.4683 53.454 21.3294 54.0633 21.348C56.4762 21.348 58.068 23.164 58.068 25.97ZM56.0625 25.97C56.0625 24.137 55.0671 22.932 53.5498 22.932C52.0588 22.932 51.0561 24.162 51.0561 25.97C51.0561 27.794 52.0588 29.016 53.5498 29.016C55.0671 29.016 56.0625 27.819 56.0625 25.97ZM68.5312 25.97C68.5312 28.783 66.9499 30.59 64.5633 30.59C63.9591 30.62 63.3582 30.4875 62.8294 30.2075C62.3005 29.9276 61.8651 29.5116 61.5729 29.007H61.5277V33.491H59.5758V21.442H61.4647V22.948H61.5004C61.8061 22.4457 62.249 22.0317 62.7821 21.75C63.3151 21.4683 63.9183 21.3294 64.5276 21.348C66.9405 21.348 68.5312 23.164 68.5312 25.97ZM66.5257 25.97C66.5257 24.137 65.5303 22.932 64.0131 22.932C62.5221 22.932 61.5193 24.162 61.5193 25.97C61.5193 27.794 62.5221 29.016 64.0131 29.016C65.5303 29.016 66.5257 27.819 66.5257 25.97ZM75.4455 27.036C75.5904 28.268 76.8462 29.076 78.564 29.076C80.2083 29.076 81.3916 28.268 81.3916 27.157C81.3916 26.193 80.6776 25.617 78.9871 25.221L77.2977 24.833C74.9037 24.283 73.7917 23.216 73.7917 21.485C73.7917 19.343 75.7521 17.871 78.5367 17.871C81.2919 17.871 83.1808 19.343 83.2438 21.485H81.274C81.1564 20.246 80.0812 19.498 78.5083 19.498C76.9354 19.498 75.8613 20.255 75.8613 21.356C75.8613 22.234 76.548 22.751 78.229 23.146L79.6654 23.482C82.3408 24.085 83.4517 25.108 83.4517 26.925C83.4517 29.248 81.5092 30.703 78.4191 30.703C75.5274 30.703 73.5744 29.283 73.4484 27.036H75.4455ZM87.6633 19.3V21.442H89.4714V22.914H87.6633V27.905C87.6633 28.681 88.0255 29.042 88.8204 29.042C89.0346 29.038 89.2488 29.024 89.4619 28.999V30.462C89.1048 30.5261 88.7417 30.5549 88.3783 30.548C86.4537 30.548 85.7029 29.859 85.7029 28.103V22.914H84.3211V21.442H85.7029V19.3H87.6633ZM90.5182 25.97C90.5182 23.121 92.2801 21.331 95.0269 21.331C97.7832 21.331 99.5367 23.121 99.5367 25.971C99.5367 28.826 97.7926 30.608 95.0269 30.608C92.2623 30.608 90.5182 28.826 90.5182 25.97ZM97.548 25.97C97.548 24.016 96.6082 22.862 95.0269 22.862C93.4456 22.862 92.5069 24.024 92.5069 25.97C92.5069 27.932 93.4456 29.076 95.0269 29.076C96.6082 29.076 97.548 27.932 97.548 25.97ZM101.145 21.442H103.007V22.983H103.052C103.178 22.5021 103.474 22.0771 103.89 21.7793C104.307 21.4816 104.818 21.3293 105.338 21.348C105.563 21.348 105.787 21.37 106.007 21.418V23.155C105.723 23.0724 105.427 23.0346 105.13 23.043C104.846 23.0319 104.564 23.0794 104.301 23.1822C104.039 23.285 103.803 23.4407 103.61 23.6386C103.416 23.8366 103.27 24.072 103.182 24.3288C103.093 24.5855 103.064 24.8575 103.096 25.126V30.496H101.145V21.442ZM115.003 27.837C114.741 29.48 113.061 30.608 110.91 30.608C108.145 30.608 106.428 28.844 106.428 26.013C106.428 23.173 108.154 21.331 110.827 21.331C113.459 21.331 115.111 23.051 115.111 25.797V26.434H108.398V26.546C108.366 26.8793 108.41 27.215 108.526 27.5309C108.641 27.8469 108.826 28.1356 109.069 28.378C109.311 28.6204 109.604 28.811 109.929 28.9372C110.255 29.0634 110.604 29.1223 110.955 29.11C111.416 29.1507 111.879 29.0489 112.274 28.8196C112.669 28.5903 112.976 28.2457 113.15 27.837H115.003ZM108.407 25.135H113.159C113.177 24.8355 113.129 24.5358 113.019 24.2547C112.909 23.9736 112.74 23.717 112.521 23.501C112.302 23.2848 112.039 23.1142 111.748 22.9999C111.456 22.8856 111.143 22.8302 110.828 22.837C110.511 22.835 110.195 22.8931 109.901 23.0077C109.607 23.1224 109.34 23.2915 109.115 23.5052C108.889 23.7189 108.711 23.9729 108.59 24.2527C108.468 24.5324 108.406 24.8323 108.407 25.135ZM37.3494 11.716C37.3494 9.78102 38.4309 8.58602 40.1707 8.58602C40.7982 8.55621 41.4145 8.75222 41.8973 9.13513C42.3801 9.51805 42.6941 10.0599 42.7768 10.653H41.8077C41.7262 10.3015 41.5176 9.98848 41.2184 9.76859C40.9192 9.54869 40.5484 9.43593 40.1707 9.45002C39.0462 9.45002 38.3427 10.323 38.3427 11.716C38.3427 13.106 39.0462 13.977 40.1749 13.977C40.5389 14.0033 40.9012 13.9077 41.1992 13.707C41.4973 13.5062 41.7124 13.2127 41.8077 12.877H42.7768C42.6821 13.4561 42.3617 13.9799 41.8794 14.344C41.3972 14.708 40.7885 14.8855 40.1749 14.841C38.434 14.841 37.3494 13.647 37.3494 11.716ZM43.8405 12.444C43.8095 12.1474 43.844 11.8479 43.942 11.5648C44.0399 11.2817 44.199 11.0213 44.4091 10.8003C44.6191 10.5794 44.8755 10.4028 45.1616 10.2819C45.4477 10.161 45.7572 10.0986 46.0701 10.0986C46.3831 10.0986 46.6926 10.161 46.9787 10.2819C47.2648 10.4028 47.5211 10.5794 47.7312 10.8003C47.9412 11.0213 48.1004 11.2817 48.1983 11.5648C48.2962 11.8479 48.3308 12.1474 48.2998 12.444C48.3308 12.7406 48.2962 13.0401 48.1983 13.3232C48.1004 13.6063 47.9412 13.8668 47.7312 14.0877C47.5211 14.3087 47.2648 14.4853 46.9787 14.6061C46.6926 14.727 46.3831 14.7895 46.0701 14.7895C45.7572 14.7895 45.4477 14.727 45.1616 14.6061C44.8755 14.4853 44.6191 14.3087 44.4091 14.0877C44.199 13.8668 44.0399 13.6063 43.942 13.3232C43.844 13.0401 43.8095 12.7406 43.8405 12.444ZM47.3401 12.444C47.3401 11.467 46.8802 10.896 46.0717 10.896C45.2611 10.896 44.8044 11.467 44.8044 12.443C44.8044 13.428 45.2611 13.993 46.0717 13.993C46.8802 13.993 47.3401 13.423 47.3401 12.443V12.444ZM49.5525 10.194H50.4502V10.909H50.5206C50.6388 10.6523 50.8383 10.437 51.091 10.2933C51.3438 10.1495 51.6373 10.0844 51.9307 10.107C52.1609 10.0907 52.3919 10.1239 52.6067 10.2041C52.8216 10.2844 53.0148 10.4096 53.1719 10.5705C53.3291 10.7314 53.4463 10.924 53.5148 11.1338C53.5833 11.3437 53.6014 11.5656 53.5677 11.783V14.698H52.6342V12.005C52.6342 11.281 52.3045 10.921 51.6147 10.921C51.4583 10.914 51.3022 10.9392 51.1571 10.9951C51.012 11.0509 50.8812 11.136 50.7739 11.2445C50.6666 11.353 50.5851 11.4823 50.5353 11.6236C50.4854 11.7649 50.4682 11.9148 50.4849 12.063V14.697H49.5525V10.194ZM56.7397 10.107C57.8023 10.107 58.4974 10.579 58.5888 11.373H57.6942C57.6081 11.043 57.2679 10.832 56.7387 10.832C56.2179 10.832 55.8231 11.066 55.8231 11.417C55.8231 11.687 56.0614 11.857 56.5738 11.967L57.3592 12.142C58.2591 12.341 58.6801 12.709 58.6801 13.371C58.6801 14.217 57.8506 14.784 56.7219 14.784C55.5973 14.784 54.8634 14.3 54.7804 13.502H55.7149C55.7952 13.6923 55.9403 13.8513 56.1269 13.9534C56.3136 14.0555 56.5309 14.0948 56.7439 14.065C57.3246 14.065 57.7383 13.817 57.7383 13.457C57.7383 13.187 57.5167 13.014 57.0432 12.907L56.2179 12.725C55.3191 12.521 54.9033 12.137 54.9033 11.467C54.9033 10.669 55.6708 10.107 56.7397 10.107ZM59.8582 9.44202L60.9481 8.02002H62.0422L60.8221 9.44202H59.8582ZM59.9548 10.194H60.8841V14.697H59.9548V10.194ZM62.3373 15.148H63.2917C63.3705 15.475 63.7653 15.685 64.3942 15.685C65.1712 15.685 65.6332 15.334 65.6332 14.738V13.874H65.5629C65.4164 14.1159 65.2025 14.3145 64.945 14.4479C64.6874 14.5813 64.3962 14.6443 64.1034 14.63C62.8959 14.63 62.1504 13.742 62.1504 12.394C62.1504 11.021 62.9053 10.12 64.1128 10.12C64.4129 10.11 64.7102 10.1788 64.972 10.3188C65.2339 10.4589 65.4502 10.6648 65.5975 10.914H65.671V10.194H66.5656V14.734C66.5656 15.764 65.7183 16.418 64.3816 16.418C63.2004 16.418 62.436 15.914 62.3373 15.148ZM65.65 12.39C65.65 11.492 65.1628 10.917 64.369 10.917C63.5658 10.917 63.1143 11.492 63.1143 12.39C63.1143 13.287 63.5658 13.861 64.368 13.861C65.1681 13.861 65.649 13.291 65.649 12.389L65.65 12.39ZM72.0382 14.697H71.1394V13.982H71.0659C70.9466 14.2417 70.7444 14.459 70.4881 14.6032C70.2318 14.7473 69.9343 14.8109 69.6379 14.785C69.4091 14.8004 69.1795 14.7667 68.9661 14.6866C68.7527 14.6065 68.5609 14.4818 68.4046 14.3219C68.2483 14.1619 68.1316 13.9707 68.0631 13.7622C67.9945 13.5537 67.9758 13.3333 68.0083 13.117V10.194H68.9428V12.886C68.9428 13.614 69.2505 13.961 69.9361 13.961C70.0952 13.9757 70.2558 13.9564 70.4061 13.9043C70.5563 13.8523 70.6925 13.7689 70.8045 13.6603C70.9166 13.5517 71.0017 13.4206 71.0536 13.2765C71.1056 13.1325 71.1231 12.9793 71.1048 12.828V10.195H72.0393L72.0382 14.697ZM77.5234 13.482C77.3967 13.8936 77.1221 14.2496 76.7476 14.4878C76.3731 14.726 75.9226 14.8312 75.4749 14.785C75.1633 14.7927 74.8538 14.7358 74.5676 14.6182C74.2815 14.5006 74.0257 14.3251 73.8179 14.1039C73.6101 13.8827 73.4554 13.6211 73.3643 13.3372C73.2733 13.0534 73.2483 12.754 73.2909 12.46C73.2493 12.1651 73.2748 11.8652 73.3656 11.5805C73.4564 11.2957 73.6103 11.0329 73.817 10.8098C74.0237 10.5867 74.2783 10.4085 74.5636 10.2872C74.8489 10.166 75.1583 10.1045 75.4707 10.107C76.7863 10.107 77.5801 10.964 77.5801 12.377V12.687H74.2411V12.737C74.2265 12.9023 74.2483 13.0687 74.3051 13.2256C74.362 13.3824 74.4527 13.5261 74.5713 13.6476C74.69 13.7691 74.834 13.8656 74.9941 13.9309C75.1542 13.9963 75.3269 14.029 75.5011 14.027C75.724 14.0523 75.9497 14.014 76.1497 13.9169C76.3497 13.8199 76.515 13.6686 76.6246 13.482H77.5234ZM74.2411 12.031H76.6288C76.6407 11.8798 76.6193 11.7279 76.5659 11.5851C76.5125 11.4423 76.4283 11.3116 76.3187 11.2017C76.2091 11.0917 76.0766 11.0047 75.9297 10.9464C75.7827 10.8881 75.6246 10.8597 75.4654 10.863C75.3039 10.8611 75.1437 10.8901 74.9941 10.9481C74.8445 11.0062 74.7087 11.0922 74.5946 11.201C74.4804 11.3099 74.3904 11.4394 74.3297 11.582C74.269 11.7245 74.2389 11.8772 74.2411 12.031ZM78.8758 8.43702H79.8093V14.697H78.8758V8.43702ZM81.106 12.444C81.0783 12.1492 81.1153 11.8521 81.2148 11.5716C81.3142 11.2912 81.4739 11.0335 81.6837 10.8151C81.8934 10.5966 82.1486 10.4222 82.433 10.3028C82.7175 10.1835 83.0249 10.1218 83.3357 10.1218C83.6465 10.1218 83.9539 10.1835 84.2383 10.3028C84.5228 10.4222 84.778 10.5966 84.9877 10.8151C85.1975 11.0335 85.3571 11.2912 85.4566 11.5716C85.556 11.8521 85.5931 12.1492 85.5654 12.444C85.5964 12.7406 85.5618 13.0401 85.4639 13.3232C85.3659 13.6063 85.2068 13.8668 84.9967 14.0877C84.7867 14.3087 84.5304 14.4853 84.2443 14.6061C83.9582 14.727 83.6487 14.7895 83.3357 14.7895C83.0227 14.7895 82.7132 14.727 82.4271 14.6061C82.141 14.4853 81.8847 14.3087 81.6746 14.0877C81.4646 13.8668 81.3055 13.6063 81.2075 13.3232C81.1096 13.0401 81.075 12.7406 81.106 12.444ZM84.6057 12.444C84.6057 11.467 84.1458 10.896 83.3373 10.896C82.5267 10.896 82.0699 11.467 82.0699 12.443C82.0699 13.428 82.5267 13.993 83.3373 13.993C84.1458 13.993 84.6057 13.423 84.6057 12.443V12.444ZM93.3816 13.481C93.2548 13.8928 92.98 14.2489 92.6053 14.4871C92.2306 14.7254 91.7798 14.8305 91.332 14.784C91.0204 14.7917 90.7109 14.7348 90.4247 14.6172C90.1386 14.4996 89.8828 14.3241 89.675 14.1029C89.4672 13.8817 89.3125 13.6201 89.2214 13.3362C89.1304 13.0524 89.1054 12.753 89.148 12.459C89.1068 12.1643 89.1325 11.8645 89.2234 11.5801C89.3144 11.2956 89.4684 11.0331 89.675 10.8102C89.8817 10.5873 90.1362 10.4092 90.4213 10.2881C90.7064 10.167 91.0156 10.1056 91.3278 10.108C92.6434 10.108 93.4383 10.963 93.4383 12.378V12.688H90.0993V12.738C90.0845 12.9033 90.1061 13.0697 90.1629 13.2265C90.2196 13.3833 90.3102 13.5271 90.4287 13.6486C90.5473 13.7701 90.6913 13.8666 90.8513 13.9319C91.0114 13.9973 91.1841 14.03 91.3582 14.028C91.5814 14.0534 91.8074 14.015 92.0076 13.9178C92.2079 13.8206 92.3732 13.6689 92.4828 13.482H93.3816V13.481ZM90.0993 12.031H92.487C92.4989 11.8798 92.4774 11.7279 92.424 11.5851C92.3706 11.4423 92.2864 11.3116 92.1768 11.2017C92.0673 11.0917 91.9348 11.0047 91.7878 10.9464C91.6409 10.8881 91.4827 10.8597 91.3236 10.863C91.1621 10.8611 91.0018 10.8901 90.8522 10.9481C90.7027 11.0062 90.5668 11.0922 90.4527 11.201C90.3386 11.3099 90.2485 11.4394 90.1878 11.582C90.1271 11.7245 90.097 11.8772 90.0993 12.031ZM94.6909 10.194H95.5887V10.909H95.658C95.7763 10.6521 95.9759 10.4368 96.2288 10.293C96.4818 10.1492 96.7756 10.0842 97.0692 10.107C97.2993 10.0907 97.5303 10.1239 97.7452 10.2041C97.96 10.2844 98.1532 10.4096 98.3104 10.5705C98.4676 10.7314 98.5847 10.924 98.6532 11.1338C98.7217 11.3437 98.7398 11.5656 98.7061 11.783V14.698H97.7727V12.005C97.7727 11.281 97.443 10.921 96.7521 10.921C96.5958 10.9141 96.4398 10.9395 96.2948 10.9954C96.1498 11.0513 96.0192 11.1364 95.912 11.2449C95.8048 11.3533 95.7235 11.4826 95.6736 11.6239C95.6238 11.7651 95.6066 11.9149 95.6233 12.063V14.697H94.6909V10.194ZM106.712 13.481C106.586 13.8926 106.311 14.2486 105.937 14.4868C105.562 14.725 105.112 14.8302 104.664 14.784C104.352 14.7917 104.043 14.7348 103.757 14.6172C103.47 14.4996 103.215 14.3241 103.007 14.1029C102.799 13.8817 102.644 13.6201 102.553 13.3362C102.462 13.0524 102.437 12.753 102.48 12.459C102.439 12.1643 102.464 11.8645 102.555 11.5801C102.646 11.2956 102.8 11.0331 103.007 10.8102C103.214 10.5873 103.468 10.4092 103.753 10.2881C104.038 10.167 104.347 10.1056 104.66 10.108C105.975 10.108 106.769 10.963 106.769 12.378V12.688H103.43V12.738C103.415 12.9034 103.437 13.0698 103.494 13.2267C103.551 13.3836 103.641 13.5274 103.76 13.649C103.879 13.7705 104.023 13.867 104.183 13.9322C104.343 13.9975 104.516 14.0302 104.69 14.028C104.913 14.0532 105.139 14.0147 105.339 13.9175C105.539 13.8203 105.704 13.6687 105.814 13.482H106.712V13.481ZM103.43 12.031H105.818C105.835 11.8032 105.777 11.5759 105.652 11.3812C105.526 11.1865 105.34 11.0343 105.118 10.946C104.971 10.8882 104.813 10.8602 104.654 10.864C104.493 10.8621 104.333 10.891 104.184 10.9489C104.034 11.0069 103.898 11.0927 103.784 11.2013C103.67 11.31 103.58 11.4393 103.519 11.5816C103.458 11.7239 103.428 11.8764 103.43 12.03V12.031ZM108.065 8.43702H108.998V14.697H108.064L108.065 8.43702Z" fill="white"/>
</g>
</svg>
