<svg width="63" height="58" viewBox="0 0 63 58" fill="none" xmlns="http://www.w3.org/2000/svg">
<path d="M28.9574 16.5075L27.8995 17.571L27.9023 17.5737L28.9574 16.5075ZM28.9574 18.1899L30.0138 19.2547L28.9574 18.1899ZM27.2616 18.1899L26.2038 19.2534L26.2065 19.2561L27.2616 18.1899ZM27.2616 16.5075L28.318 17.5723L27.2616 16.5075ZM28.9574 28.2855L27.9009 29.3503L28.9574 28.2855ZM28.9574 33.3339L27.9009 32.269L28.9574 33.3339ZM23.87 33.3339L24.9265 32.269L23.87 33.3339ZM15.3899 24.9207L14.3335 25.9855L15.3899 24.9207ZM15.3899 19.8722L16.4464 20.9371L16.4473 20.9362L15.3899 19.8722ZM32.3502 3.04585L33.4062 4.11116L33.4075 4.1098L32.3502 3.04585ZM37.4375 3.04585L36.3801 4.1098L36.3811 4.1107L37.4375 3.04585ZM45.9176 11.4591L44.8612 12.5239L45.9176 11.4591ZM45.9176 16.5075L46.9741 17.5723L45.9176 16.5075ZM34.0459 24.9207L35.1024 25.9855L35.1026 25.9853L34.0459 24.9207ZM29.8053 29.1267L28.7488 30.1916C29.3336 30.7717 30.2767 30.7718 30.8616 30.1917L29.8053 29.1267ZM19.6294 19.0311L18.5729 17.9662C18.2891 18.2479 18.1294 18.6312 18.1294 19.0311C18.1294 19.431 18.2891 19.8143 18.5729 20.0959L19.6294 19.0311ZM31.5023 7.25185L32.5587 6.187C31.9739 5.6068 31.0306 5.6068 30.4458 6.187L31.5023 7.25185ZM41.6781 17.3487L42.7346 18.4135C43.0183 18.132 43.178 17.7489 43.1781 17.3492C43.1783 16.9495 43.0189 16.5663 42.7353 16.2846L41.6781 17.3487ZM37.4519 21.5416L38.3473 22.745C38.4011 22.705 38.4521 22.6614 38.5001 22.6146L37.4519 21.5416ZM41.8251 23.6696C41.1763 23.1546 40.2327 23.2631 39.7177 23.912C39.2027 24.5608 39.3112 25.5044 39.96 26.0194L41.8251 23.6696ZM59.5941 40.142L60.6503 39.0769C60.6163 39.0432 60.5808 39.0112 60.5439 38.981L59.5941 40.142ZM59.5941 46.8717L58.538 45.8065L58.5373 45.8072L59.5941 46.8717ZM52.811 46.8717L51.6602 47.8337C51.6899 47.8693 51.7213 47.9035 51.7542 47.9362L52.811 46.8717ZM38.4972 27.4103C37.9658 26.7747 37.0199 26.6902 36.3843 27.2215C35.7487 27.7528 35.6642 28.6988 36.1955 29.3344L38.4972 27.4103ZM40.8303 24.9207L41.8865 25.9857L41.8867 25.9855L40.8303 24.9207ZM37.4375 28.2855L36.3812 27.2204L36.381 27.2206L37.4375 28.2855ZM37.3452 28.3712L36.3557 27.2438C36.3521 27.2469 36.3485 27.2501 36.3449 27.2533L37.3452 28.3712ZM34.0459 28.2855L35.1024 27.2206V27.2206L34.0459 28.2855ZM37.4375 21.5547L36.381 20.4898L36.3809 20.49L37.4375 21.5547ZM40.8303 21.5547L39.7738 22.6195L40.8303 21.5547ZM30.7827 56V57.5C31.6111 57.5 32.2827 56.8284 32.2827 56H30.7827ZM2 56H0.5C0.5 56.8284 1.17157 57.5 2 57.5L2 56ZM4.39856 48.8611H2.89856H4.39856ZM28.3841 48.8611H26.8841V48.8611L28.3841 48.8611ZM2 28.3239C1.17157 28.3239 0.500001 28.9955 0.500001 29.8239C0.500001 30.6524 1.17157 31.3239 2 31.3239V28.3239ZM7.51668 31.3239C8.34511 31.3239 9.01668 30.6524 9.01668 29.8239C9.01668 28.9955 8.34511 28.3239 7.51668 28.3239V31.3239ZM6.87598 19.9376C6.28778 19.3542 5.33804 19.3581 4.75468 19.9463C4.17132 20.5345 4.17525 21.4843 4.76345 22.0676L6.87598 19.9376ZM8.15621 25.4324C8.74441 26.0158 9.69415 26.0119 10.2775 25.4237C10.8609 24.8355 10.8569 23.8857 10.2687 23.3024L8.15621 25.4324ZM4.76345 37.5802C4.17525 38.1636 4.17132 39.1133 4.75468 39.7015C5.33804 40.2897 6.28778 40.2937 6.87598 39.7103L4.76345 37.5802ZM10.2687 36.3455C10.8569 35.7621 10.8609 34.8124 10.2775 34.2242C9.69415 33.636 8.74441 33.6321 8.15621 34.2154L10.2687 36.3455ZM30.4458 12.9178C29.8577 13.5013 29.8539 14.451 30.4374 15.0391C31.0209 15.6272 31.9706 15.631 32.5587 15.0475L30.4458 12.9178ZM27.9023 17.5737C27.7772 17.4499 27.7792 17.2458 27.9009 17.125L30.0138 19.2547C31.0734 18.2035 31.0753 16.4931 30.0125 15.4413L27.9023 17.5737ZM27.9009 17.125C28.0188 17.0081 28.2019 17.0101 28.3167 17.1237L26.2065 19.2561C27.2592 20.2978 28.9605 20.2997 30.0138 19.2547L27.9009 17.125ZM28.3194 17.1264C28.4405 17.2468 28.4425 17.4489 28.318 17.5723L26.2051 15.4426C25.1453 16.4941 25.1472 18.2025 26.2038 19.2534L28.3194 17.1264ZM28.318 17.5723C28.2029 17.6866 28.0177 17.6885 27.8995 17.571L30.0152 15.444C28.9616 14.396 27.2581 14.3979 26.2051 15.4426L28.318 17.5723ZM27.9009 29.3503C28.7151 30.1581 28.7151 31.4613 27.9009 32.269L30.0138 34.3987C32.0108 32.4175 32.0108 29.2018 30.0138 27.2206L27.9009 29.3503ZM27.9009 32.269C27.0814 33.0821 25.746 33.0821 24.9265 32.269L22.8136 34.3987C24.8027 36.3722 28.0247 36.3722 30.0138 34.3987L27.9009 32.269ZM24.9265 32.269L16.4464 23.8558L14.3335 25.9855L22.8136 34.3987L24.9265 32.269ZM16.4464 23.8558C15.6322 23.0481 15.6322 21.7448 16.4464 20.9371L14.3335 18.8074C12.3365 20.7886 12.3365 24.0043 14.3335 25.9855L16.4464 23.8558ZM16.4473 20.9362C16.8549 20.5311 17.3902 20.3264 17.9336 20.3264V17.3264C16.6349 17.3264 15.3281 17.8189 14.3326 18.8083L16.4473 20.9362ZM17.9336 20.3264C18.477 20.3264 19.0123 20.5311 19.4199 20.9362L21.5346 18.8083C20.5391 17.8189 19.2323 17.3264 17.9336 17.3264V20.3264ZM33.3952 7.01692C32.5926 6.20896 32.5971 4.91318 33.4062 4.11116L31.2942 1.98055C29.3066 3.95081 29.2966 7.14779 31.2668 9.13115L33.3952 7.01692ZM33.4075 4.1098C33.8152 3.7047 34.3504 3.5 34.8938 3.5V0.5C33.5952 0.5 32.2883 0.992537 31.2928 1.9819L33.4075 4.1098ZM34.8938 3.5C35.4373 3.5 35.9725 3.7047 36.3801 4.1098L38.4949 1.9819C37.4993 0.992538 36.1925 0.5 34.8938 0.5V3.5ZM36.3811 4.1107L44.8612 12.5239L46.9741 10.3942L38.494 1.981L36.3811 4.1107ZM44.8612 12.5239C45.6753 13.3317 45.6753 14.6349 44.8612 15.4426L46.9741 17.5723C48.971 15.5911 48.971 12.3754 46.9741 10.3942L44.8612 12.5239ZM44.8612 15.4426C44.0424 16.2549 42.7079 16.2555 41.8887 15.4434L39.7767 17.574C41.7661 19.5461 44.9865 19.5442 46.9741 17.5723L44.8612 15.4426ZM32.9896 23.8557L28.749 28.0617L30.8616 30.1917L35.1022 25.9857L32.9896 23.8557ZM30.8617 28.0618L30.0138 27.2206L27.9009 29.3503L28.7488 30.1916L30.8617 28.0618ZM30.0138 27.2206L21.5337 18.8074L19.4208 20.9371L27.9009 29.3503L30.0138 27.2206ZM21.5337 18.8074L20.6859 17.9662L18.5729 20.0959L19.4208 20.9371L21.5337 18.8074ZM20.6859 20.0959L32.5587 8.3167L30.4458 6.187L18.5729 17.9662L20.6859 20.0959ZM30.4458 8.3167L31.2745 9.13889L33.3874 7.00918L32.5587 6.187L30.4458 8.3167ZM31.2743 9.13864L33.8371 11.6825L35.9505 9.55325L33.3877 7.00943L31.2743 9.13864ZM33.8375 11.6828L39.7763 17.5736L41.889 15.4437L35.9502 9.55289L33.8375 11.6828ZM39.7755 17.5728L40.6209 18.4128L42.7353 16.2846L41.8899 15.4446L39.7755 17.5728ZM40.6217 16.2838L36.3954 20.4767L38.5083 22.6064L42.7346 18.4135L40.6217 16.2838ZM39.96 26.0194L39.966 26.0242L41.8311 23.6744L41.8251 23.6696L39.96 26.0194ZM39.9489 26.0103L58.6444 41.3031L60.5439 38.981L41.8483 23.6882L39.9489 26.0103ZM58.538 41.2072C59.8207 42.4789 59.8207 44.5348 58.538 45.8065L60.6503 47.9369C63.1166 45.4916 63.1166 41.5222 60.6503 39.0769L58.538 41.2072ZM58.5373 45.8072C57.249 47.0862 55.1562 47.0862 53.8678 45.8072L51.7542 47.9362C54.2124 50.3765 58.1928 50.3765 60.6509 47.9362L58.5373 45.8072ZM53.9619 45.9096L38.4972 27.4103L36.1955 29.3344L51.6602 47.8337L53.9619 45.9096ZM39.7635 23.8686C39.7767 23.8534 39.7862 23.8436 39.7881 23.8416C39.789 23.8406 39.7887 23.841 39.7862 23.8435C39.7834 23.8463 39.7801 23.8496 39.7738 23.8558L41.8867 25.9855C41.905 25.9674 41.9684 25.9054 42.0336 25.8299L39.7635 23.8686ZM39.774 23.8556L36.3812 27.2204L38.4938 29.3505L41.8865 25.9857L39.774 23.8556ZM36.381 27.2206C36.3788 27.2229 36.3713 27.2301 36.3557 27.2438L38.3346 29.4985C38.3813 29.4575 38.4363 29.4076 38.494 29.3503L36.381 27.2206ZM36.3449 27.2533C35.9916 27.5695 35.4422 27.5577 35.1024 27.2206L32.9895 29.3503C34.463 30.8122 36.8159 30.8576 38.3454 29.489L36.3449 27.2533ZM35.1024 27.2206C34.9273 27.0469 34.8432 26.8266 34.8432 26.6031H31.8432C31.8432 27.598 32.2268 28.5937 32.9895 29.3503L35.1024 27.2206ZM34.8432 26.6031C34.8432 26.3796 34.9273 26.1593 35.1024 25.9855L32.9895 23.8558C32.2268 24.6125 31.8432 25.6082 31.8432 26.6031H34.8432ZM35.1026 25.9853L38.4941 22.6193L36.3809 20.49L32.9893 23.856L35.1026 25.9853ZM38.494 22.6195C38.4995 22.614 38.4846 22.629 38.4661 22.6462C38.4471 22.6639 38.4053 22.7019 38.3473 22.745L36.5564 20.3382C36.4937 20.3849 36.4471 20.427 36.4232 20.4492C36.4102 20.4613 36.3997 20.4715 36.3931 20.4779C36.387 20.4839 36.3816 20.4893 36.381 20.4898L38.494 22.6195ZM38.5001 22.6146C38.8523 22.2705 39.424 22.2725 39.7738 22.6195L41.8867 20.4898C40.3728 18.9879 37.9271 18.9804 36.4037 20.4686L38.5001 22.6146ZM39.7738 22.6195C39.9481 22.7925 40.033 23.0142 40.033 23.2371H43.033C43.033 22.2416 42.6478 21.2449 41.8867 20.4898L39.7738 22.6195ZM40.033 23.2371C40.033 23.4487 39.9559 23.6601 39.7995 23.8285L41.9977 25.8701C42.6856 25.1294 43.033 24.182 43.033 23.2371H40.033ZM28.3841 51.5509C28.8914 51.5509 29.2827 51.9559 29.2827 52.4305H32.2827C32.2827 50.2757 30.5249 48.5509 28.3841 48.5509V51.5509ZM29.2827 52.4305V56H32.2827V52.4305H29.2827ZM30.7827 54.5H2V57.5H30.7827V54.5ZM3.5 56V52.4305H0.5V56H3.5ZM3.5 52.4305C3.5 51.9554 3.89056 51.5509 4.39856 51.5509V48.5509C2.25615 48.5509 0.5 50.2762 0.5 52.4305H3.5ZM28.3841 48.5509H4.39856V51.5509H28.3841V48.5509ZM5.89856 50.0509L5.89856 48.8611H2.89856L2.89856 50.0509L5.89856 50.0509ZM5.89856 48.8611C5.89856 47.0721 7.36272 45.6018 9.19567 45.6018V42.6018C5.72781 42.6018 2.89856 45.3934 2.89856 48.8611H5.89856ZM9.19567 45.6018H23.587V42.6018H9.19567V45.6018ZM23.587 45.6018C25.419 45.6018 26.8841 47.0724 26.8841 48.8611H29.8841C29.8841 45.3932 27.0534 42.6018 23.587 42.6018V45.6018ZM26.8841 48.8611L26.8841 50.0509L29.8841 50.0509L29.8841 48.8611L26.8841 48.8611ZM2 31.3239H7.51668V28.3239H2V31.3239ZM4.76345 22.0676L8.15621 25.4324L10.2687 23.3024L6.87598 19.9376L4.76345 22.0676ZM6.87598 39.7103L10.2687 36.3455L8.15621 34.2154L4.76345 37.5802L6.87598 39.7103ZM32.5587 15.0475L35.9503 11.6827L33.8374 9.553L30.4458 12.9178L32.5587 15.0475Z" fill="black"/>
</svg>
