<svg width="39" height="36" viewBox="0 0 39 36" fill="none" xmlns="http://www.w3.org/2000/svg">
<path id="Vector" d="M17.9055 10.1343L17.1988 10.8419L17.2007 10.8437L17.9055 10.1343ZM17.9055 11.1936L18.6112 11.9021L17.9055 11.1936ZM16.842 11.1936L16.1354 11.9012L16.1372 11.903L16.842 11.1936ZM16.842 10.1343L17.5477 10.8428L16.842 10.1343ZM17.9055 17.5501L17.1997 18.2586L17.9055 17.5501ZM17.9055 20.7287L17.1997 20.0202L17.9055 20.7287ZM14.7151 20.7287L15.4208 20.0202L14.7151 20.7287ZM9.39707 15.4315L8.69135 16.14L9.39707 15.4315ZM9.39707 12.2529L10.1028 12.9614L10.1034 12.9608L9.39707 12.2529ZM20.0332 1.6585L20.7386 2.36729L20.7395 2.36639L20.0332 1.6585ZM23.2235 1.6585L22.5172 2.36639L22.5178 2.36699L23.2235 1.6585ZM28.5416 6.95571L27.8358 7.66421L28.5416 6.95571ZM28.5416 10.1343L29.2473 10.8428L28.5416 10.1343ZM21.0966 15.4315L21.8023 16.14L21.8024 16.1399L21.0966 15.4315ZM18.4372 18.0798L17.7315 18.7883C18.1217 19.1769 18.7526 19.177 19.1428 18.7884L18.4372 18.0798ZM12.0557 11.7233L11.35 11.0148C11.1616 11.2024 11.0557 11.4574 11.0557 11.7233C11.0557 11.9892 11.1616 12.2441 11.35 12.4318L12.0557 11.7233ZM19.5014 4.30672L20.2071 3.59823C19.8169 3.20955 19.1859 3.20955 18.7957 3.59823L19.5014 4.30672ZM25.8829 10.664L26.5886 11.3725C26.7769 11.1849 26.8828 10.9301 26.8829 10.6643C26.883 10.3986 26.7773 10.1437 26.5891 9.95599L25.8829 10.664ZM23.2325 13.304L23.831 14.1051C23.8669 14.0783 23.9008 14.0492 23.9328 14.0179L23.2325 13.304ZM26.0135 14.6015C25.5816 14.2573 24.9524 14.3285 24.6082 14.7604C24.264 15.1923 24.3351 15.8214 24.767 16.1656L26.0135 14.6015ZM37.1184 25.0154L37.8239 24.3066C37.8013 24.2842 37.7776 24.2628 37.753 24.2426L37.1184 25.0154ZM37.1184 29.2525L36.4129 28.5438L36.4124 28.5443L37.1184 29.2525ZM32.8645 29.2525L32.096 29.8924C32.1158 29.9162 32.1367 29.939 32.1586 29.9608L32.8645 29.2525ZM23.9348 16.9649C23.5814 16.5405 22.9509 16.4829 22.5265 16.8363C22.1021 17.1897 22.0445 17.8202 22.3979 18.2447L23.9348 16.9649ZM25.3512 15.4315L26.0568 16.1402L26.0569 16.14L25.3512 15.4315ZM23.2235 17.5501L22.5179 16.8415L22.5178 16.8416L23.2235 17.5501ZM23.1656 17.6041L22.5045 16.8537L22.4973 16.8602L23.1656 17.6041ZM21.0966 17.5501L21.8023 16.8416L21.0966 17.5501ZM23.2235 13.3122L22.5178 12.6037L22.5177 12.6038L23.2235 13.3122ZM25.3512 13.3122L24.6455 14.0207L25.3512 13.3122ZM19.0502 35V36C19.6024 36 20.0502 35.5523 20.0502 35H19.0502ZM1 35H0C0 35.5523 0.447715 36 1 36L1 35ZM2.50418 30.5051H1.50418V30.5051L2.50418 30.5051ZM17.546 30.5051H16.546V30.5051L17.546 30.5051ZM1 17.5188C0.447716 17.5188 4.76837e-07 17.9665 4.76837e-07 18.5188C4.76837e-07 19.0711 0.447716 19.5188 1 19.5188V17.5188ZM4.45961 19.5188C5.0119 19.5188 5.45961 19.0711 5.45961 18.5188C5.45961 17.9665 5.0119 17.5188 4.45961 17.5188V19.5188ZM4.10101 12.256C3.70965 11.8663 3.07649 11.8676 2.6868 12.259C2.29711 12.6504 2.29846 13.2835 2.68982 13.6732L4.10101 12.256ZM4.81748 15.7918C5.20884 16.1815 5.84201 16.1801 6.23169 15.7888C6.62138 15.3974 6.62003 14.7643 6.22867 14.3746L4.81748 15.7918ZM2.68982 23.3643C2.29846 23.754 2.29711 24.3872 2.6868 24.7785C3.07649 25.1699 3.70965 25.1713 4.10101 24.7816L2.68982 23.3643ZM6.22867 22.663C6.62003 22.2733 6.62138 21.6401 6.23169 21.2488C5.84201 20.8574 5.20884 20.8561 4.81748 21.2458L6.22867 22.663ZM18.7957 7.83614C18.4044 8.22589 18.4032 8.85906 18.7929 9.25035C19.1827 9.64164 19.8158 9.64288 20.2071 9.25312L18.7957 7.83614ZM17.2007 10.8437C17.1006 10.7444 17.1019 10.5826 17.1997 10.4851L18.6112 11.9021C19.2971 11.2189 19.2984 10.1087 18.6103 9.42494L17.2007 10.8437ZM17.1997 10.4851C17.2971 10.3881 17.4514 10.3894 17.5468 10.4842L16.1372 11.903C16.8208 12.5822 17.9272 12.5835 18.6112 11.9021L17.1997 10.4851ZM17.5486 10.486C17.646 10.5833 17.6473 10.7437 17.5477 10.8428L16.1363 9.42584C15.4501 10.1094 15.4514 11.2182 16.1354 11.9012L17.5486 10.486ZM17.5477 10.8428C17.4521 10.9381 17.2964 10.9394 17.1988 10.8419L18.6121 9.42675C17.9279 8.74345 16.8201 8.74475 16.1363 9.42584L17.5477 10.8428ZM17.1997 18.2586C17.6888 18.7458 17.6888 19.5331 17.1997 20.0202L18.6112 21.4372C19.885 20.1684 19.885 18.1105 18.6112 16.8416L17.1997 18.2586ZM17.1997 20.0202C16.7093 20.5088 15.9113 20.5088 15.4208 20.0202L14.0094 21.4372C15.2803 22.7032 17.3403 22.7032 18.6112 21.4372L17.1997 20.0202ZM15.4208 20.0202L10.1028 14.723L8.69135 16.14L14.0094 21.4372L15.4208 20.0202ZM10.1028 14.723C9.61372 14.2359 9.61372 13.4486 10.1028 12.9614L8.69135 11.5444C7.41753 12.8132 7.41753 14.8712 8.69135 16.14L10.1028 14.723ZM10.1034 12.9608C10.3477 12.717 10.6677 12.5944 10.9923 12.5944V10.5944C10.1616 10.5944 9.3264 10.9108 8.69075 11.545L10.1034 12.9608ZM10.9923 12.5944C11.3169 12.5944 11.6368 12.717 11.8811 12.9608L13.2938 11.545C12.6581 10.9108 11.8229 10.5944 10.9923 10.5944V12.5944ZM20.732 4.12107C20.2499 3.63377 20.2526 2.85094 20.7386 2.36729L19.3277 0.949705C18.0598 2.21157 18.0535 4.25752 19.3103 5.52771L20.732 4.12107ZM20.7395 2.36639C20.9838 2.12264 21.3037 2 21.6283 2V0C20.7977 0 19.9625 0.316359 19.3268 0.95061L20.7395 2.36639ZM21.6283 2C21.9529 2 22.2729 2.12264 22.5172 2.36639L23.9298 0.95061C23.2942 0.31636 22.459 0 21.6283 0V2ZM22.5178 2.36699L27.8358 7.66421L29.2473 6.24722L23.9292 0.950008L22.5178 2.36699ZM27.8358 7.66421C28.3249 8.15137 28.3249 8.93869 27.8358 9.42585L29.2473 10.8428C30.5211 9.574 30.5211 7.51606 29.2473 6.24722L27.8358 7.66421ZM27.8358 9.42585C27.3458 9.91394 26.5484 9.91426 26.0581 9.4263L24.6473 10.8439C25.9184 12.1089 27.9774 12.1077 29.2473 10.8428L27.8358 9.42585ZM20.391 14.723L17.7316 17.3712L19.1428 18.7884L21.8022 16.1401L20.391 14.723ZM19.1429 17.3713L18.6112 16.8416L17.1997 18.2586L17.7315 18.7883L19.1429 17.3713ZM18.6112 16.8416L13.2932 11.5444L11.8817 12.9614L17.1997 18.2586L18.6112 16.8416ZM13.2932 11.5444L12.7614 11.0148L11.35 12.4318L11.8817 12.9614L13.2932 11.5444ZM12.7614 12.4318L20.2071 5.01521L18.7957 3.59823L11.35 11.0148L12.7614 12.4318ZM18.7957 5.01521L19.3154 5.53288L20.7268 4.1159L20.2071 3.59823L18.7957 5.01521ZM19.3152 5.53272L20.9224 7.13438L22.3342 5.71773L20.727 4.11607L19.3152 5.53272ZM20.9227 7.13462L24.647 10.8437L26.0583 9.42653L22.334 5.71749L20.9227 7.13462ZM24.6465 10.8431L25.1767 11.372L26.5891 9.95599L26.0589 9.4271L24.6465 10.8431ZM25.1772 9.95548L22.5268 12.5955L23.9383 14.0125L26.5886 11.3725L25.1772 9.95548ZM24.767 16.1656L24.7708 16.1686L26.0173 14.6045L26.0135 14.6015L24.767 16.1656ZM24.7594 16.1594L36.4837 25.7882L37.753 24.2426L26.0287 14.6138L24.7594 16.1594ZM36.4129 25.7241C37.1957 26.5034 37.1957 27.7645 36.4129 28.5438L37.8239 29.9613C39.392 28.4002 39.392 25.8677 37.8239 24.3066L36.4129 25.7241ZM36.4124 28.5443C35.6279 29.3262 34.355 29.3262 33.5705 28.5443L32.1586 29.9608C33.7236 31.5207 36.2593 31.5207 37.8243 29.9608L36.4124 28.5443ZM33.633 28.6127L23.9348 16.9649L22.3979 18.2447L32.096 29.8924L33.633 28.6127ZM24.636 14.7343C24.6452 14.7237 24.6519 14.7167 24.6536 14.7149C24.6545 14.714 24.6545 14.714 24.653 14.7155C24.6514 14.7171 24.6494 14.7191 24.6455 14.723L26.0569 16.14C26.0681 16.1288 26.1095 16.0883 26.152 16.0388L24.636 14.7343ZM24.6456 14.7229L22.5179 16.8415L23.9291 18.2587L26.0568 16.1402L24.6456 14.7229ZM22.5178 16.8416C22.5178 16.8416 22.5176 16.8419 22.517 16.8424C22.5164 16.843 22.5156 16.8438 22.5145 16.8448C22.5122 16.8469 22.5089 16.8499 22.5045 16.8538L23.8267 18.3543C23.8566 18.328 23.892 18.2957 23.9292 18.2586L22.5178 16.8416ZM22.4973 16.8602C22.2995 17.0378 21.9928 17.0313 21.8023 16.8416L20.3909 18.2586C21.3376 19.2016 22.8509 19.2311 23.8339 18.348L22.4973 16.8602ZM21.8023 16.8416C21.7036 16.7433 21.6559 16.6185 21.6559 16.4908H19.6559C19.6559 17.1303 19.9014 17.7711 20.3909 18.2586L21.8023 16.8416ZM21.6559 16.4908C21.6559 16.3631 21.7036 16.2383 21.8023 16.14L20.3909 14.7231C19.9014 15.2106 19.6559 15.8514 19.6559 16.4908H21.6559ZM21.8024 16.1399L23.9294 14.0206L22.5177 12.6038L20.3908 14.7232L21.8024 16.1399ZM23.9292 14.0207C23.9329 14.0171 23.9228 14.0272 23.9104 14.0388C23.8977 14.0507 23.8698 14.0762 23.831 14.1051L22.634 12.5028C22.5923 12.534 22.5614 12.5621 22.5456 12.5768C22.537 12.5849 22.53 12.5917 22.5257 12.5959C22.5216 12.5999 22.5181 12.6034 22.5178 12.6037L23.9292 14.0207ZM23.9328 14.0179C24.1301 13.8243 24.4494 13.8254 24.6455 14.0207L26.0569 12.6037C25.0842 11.6348 23.5112 11.6299 22.5323 12.59L23.9328 14.0179ZM24.6455 14.0207C24.7437 14.1185 24.7919 14.2442 24.7919 14.3715H26.7919C26.7919 13.7317 26.5453 13.0902 26.0569 12.6037L24.6455 14.0207ZM24.7919 14.3715C24.7919 14.4923 24.748 14.6123 24.66 14.7075L26.1281 16.0657C26.5695 15.5885 26.7919 14.9788 26.7919 14.3715H24.7919ZM17.546 32.2543C17.828 32.2543 18.0502 32.4811 18.0502 32.7526H20.0502C20.0502 31.3685 18.9246 30.2543 17.546 30.2543V32.2543ZM18.0502 32.7526V35H20.0502V32.7526H18.0502ZM19.0502 34H1V36H19.0502V34ZM2 35V32.7526H0V35H2ZM2 32.7526C2 32.4807 2.22171 32.2543 2.50418 32.2543V30.2543C1.12454 30.2543 0 31.3688 0 32.7526H2ZM17.546 30.2543H2.50418V32.2543H17.546V30.2543ZM3.50418 31.2543L3.50418 30.5051L1.50418 30.5051L1.50418 31.2543H3.50418ZM3.50418 30.5051C3.50418 29.4061 4.39917 28.5085 5.51254 28.5085V26.5085C3.30167 26.5085 1.50418 28.2944 1.50418 30.5051H3.50418ZM5.51254 28.5085H14.5376V26.5085H5.51254V28.5085ZM14.5376 28.5085C15.6504 28.5085 16.546 29.4062 16.546 30.5051H18.546C18.546 28.2943 16.7476 26.5085 14.5376 26.5085V28.5085ZM16.546 30.5051L16.546 31.2543L18.546 31.2543L18.546 30.5051L16.546 30.5051ZM1 19.5188H4.45961V17.5188H1V19.5188ZM2.68982 13.6732L4.81748 15.7918L6.22867 14.3746L4.10101 12.256L2.68982 13.6732ZM4.10101 24.7816L6.22867 22.663L4.81748 21.2458L2.68982 23.3643L4.10101 24.7816ZM20.2071 9.25312L22.334 7.13455L20.9226 5.71756L18.7957 7.83614L20.2071 9.25312Z" fill="white"/>
</svg>
