<svg width="30" height="30" viewBox="0 0 30 30" fill="none" xmlns="http://www.w3.org/2000/svg">
<path fill-rule="evenodd" clip-rule="evenodd" d="M27 10V24H29C29.552 24 30 24.448 30 25V29C30 29.552 29.552 30 29 30H1C0.448 30 0 29.552 0 29V25C0 24.448 0.448 24 1 24H3V10H1C0.547001 10 0.15 9.695 0.0340004 9.257C-0.0830002 8.818 0.110001 8.357 0.504 8.132L14.504 0.132C14.811 -0.044 15.189 -0.044 15.496 0.132L29.496 8.132C29.89 8.357 30.083 8.818 29.966 9.257C29.85 9.695 29.453 10 29 10H27ZM21 10V24H9V10H21ZM23 10V24H25V10H23ZM5 10V24H7V10H5Z" fill="black"/>
</svg>
