<svg width="20" height="19" viewBox="0 0 20 19" fill="none" xmlns="http://www.w3.org/2000/svg">
<path fill-rule="evenodd" clip-rule="evenodd" d="M2.02804 7.71818L5.94878 4.44178C5.89445 4.30007 5.86482 4.14706 5.86482 3.98741C5.86482 3.25747 6.48457 2.66577 7.24903 2.66577C7.9989 2.66577 8.60944 3.23507 8.63257 3.94568L11.7314 4.98156C11.9853 4.69699 12.3633 4.51649 12.7854 4.51649C13.0236 4.51649 13.2478 4.57394 13.4435 4.67511L17.0159 1.76077C16.9653 1.62336 16.9376 1.47561 16.9376 1.32164C16.9376 0.591738 17.5573 0 18.3218 0C19.0863 0 19.7061 0.591738 19.7061 1.32164C19.7061 2.05163 19.0863 2.64337 18.3218 2.64337C18.0836 2.64337 17.8595 2.58592 17.6638 2.48475L14.0913 5.39909C14.142 5.5365 14.1697 5.68425 14.1697 5.83822C14.1697 6.56812 13.5499 7.15986 12.7854 7.15986C12.0356 7.15986 11.4251 6.59056 11.4019 5.87999L8.30311 4.84411C8.04919 5.12868 7.67123 5.30918 7.24903 5.30918C7.01657 5.30918 6.79757 5.25439 6.60524 5.15772L2.68449 8.43412C2.73883 8.57579 2.76845 8.72884 2.76845 8.88849C2.76845 9.61847 2.1487 10.2101 1.38416 10.2101C0.619749 10.2101 0 9.6184 0 8.88841C0 8.15842 0.619749 7.56677 1.38421 7.56677C1.61666 7.56677 1.8357 7.62151 2.02804 7.71818ZM17.2688 5.25344C16.9246 5.25344 16.6438 5.5215 16.6438 5.85019V18.029C16.6438 18.3577 16.9246 18.6258 17.2688 18.6258H19.375C19.7192 18.6258 20 18.3577 20 18.029V5.85019C20 5.5215 19.7193 5.25344 19.375 5.25344H17.2688ZM11.7324 10.1201C11.3881 10.1201 11.1074 10.3882 11.1074 10.7169V18.1538C11.1074 18.4825 11.3881 18.7505 11.7324 18.7505H13.8386C14.1828 18.7505 14.4636 18.4825 14.4636 18.1538C14.4636 15.6749 14.4636 13.1959 14.4636 10.7169C14.4636 10.3882 14.1828 10.1201 13.8386 10.1201C13.1365 10.1201 12.4345 10.1201 11.7324 10.1201ZM6.19599 8.37298C5.8517 8.37298 5.57095 8.64104 5.57095 8.96973V18.2785C5.57095 18.6072 5.85165 18.8753 6.19599 18.8753H8.30215C8.64636 18.8753 8.92715 18.6072 8.92715 18.2785V8.96973C8.92715 8.64104 8.64636 8.37298 8.30215 8.37298H6.19599ZM0.659582 13.5097H2.7657C3.10995 13.5097 3.39074 13.7778 3.39074 14.1064V18.4032C3.39074 18.7319 3.10995 19 2.7657 19H0.659582C0.315333 19 0.0345416 18.7319 0.0345416 18.4032V14.1064C0.0345833 13.7777 0.315374 13.5097 0.659582 13.5097Z" fill="black"/>
</svg>
