<svg width="22" height="23" viewBox="0 0 22 23" fill="none" xmlns="http://www.w3.org/2000/svg">
<path d="M22 4.89481C22 4.60302 21.8219 4.34011 21.5491 4.2292L11.2764 0.053968C11.0993 -0.0179893 10.9007 -0.0179893 10.7236 0.053968L0.450931 4.2292C0.178145 4.34006 0 4.60302 0 4.89481V18.1052C0 18.397 0.1781 18.6599 0.450931 18.7708L10.7236 22.946C10.8988 23.0172 11.0957 23.0188 11.2755 22.946C11.2842 22.9431 10.8953 23.1009 21.5491 18.7708C21.8219 18.6599 22 18.397 22 18.1052V4.89481ZM11 8.35263L7.2149 6.81423L15.3949 3.28377L19.4331 4.92508L11 8.35263ZM1.45462 6.02886L4.72028 7.35616V11.1008C4.72028 11.4982 5.04593 11.8204 5.44759 11.8204C5.84924 11.8204 6.1749 11.4982 6.1749 11.1008V7.94738L10.2727 9.61287V21.2069L1.45462 17.6229V6.02886ZM11 1.49748L13.5213 2.52224L5.34131 6.05269L2.56685 4.92503L11 1.49748ZM11.7273 9.61287L20.5454 6.02886V17.6229L11.7273 21.2069V9.61287Z" fill="black"/>
</svg>
