<svg width="44" height="44" viewBox="0 0 44 44" fill="none" xmlns="http://www.w3.org/2000/svg">
<path d="M39.2734 8.67969H30.6635L29.8262 6.16773C29.2989 4.58605 27.8245 3.52344 26.1574 3.52344H17.8426C16.1755 3.52344 14.7011 4.58605 14.1738 6.16773L13.3365 8.67969H11.2578V6.53125C11.2578 4.87274 9.90851 3.52344 8.25 3.52344H6.53125C4.87274 3.52344 3.52344 4.87274 3.52344 6.53125V8.83541C1.49806 9.36891 0 11.2157 0 13.4062V35.75C0 38.3562 2.12034 40.4766 4.72656 40.4766H39.2734C41.8797 40.4766 44 38.3562 44 35.75V13.4062C44 10.8 41.8797 8.67969 39.2734 8.67969ZM6.10156 6.53125C6.10156 6.29432 6.29432 6.10156 6.53125 6.10156H8.25C8.48693 6.10156 8.67969 6.29432 8.67969 6.53125V8.67969H6.10156V6.53125ZM41.4219 35.75C41.4219 36.9346 40.4581 37.8984 39.2734 37.8984H4.72656C3.54191 37.8984 2.57812 36.9346 2.57812 35.75V13.4062C2.57812 12.2216 3.54191 11.2578 4.72656 11.2578H14.2656C14.8204 11.2578 15.313 10.9028 15.4885 10.3764L16.6196 6.98302C16.7955 6.4558 17.2868 6.10156 17.8426 6.10156H26.1574C26.7132 6.10156 27.2046 6.4558 27.3803 6.98294L28.5114 10.3764C28.687 10.9028 29.1796 11.2578 29.7344 11.2578H39.2734C40.4581 11.2578 41.4219 12.2216 41.4219 13.4062V35.75Z" fill="#009045"/>
<path d="M37.4688 16.4141C38.1807 16.4141 38.7578 15.8369 38.7578 15.125C38.7578 14.4131 38.1807 13.8359 37.4688 13.8359C36.7568 13.8359 36.1797 14.4131 36.1797 15.125C36.1797 15.8369 36.7568 16.4141 37.4688 16.4141Z" fill="#009045"/>
<path d="M9.10938 13.8359H6.53125C5.81934 13.8359 5.24219 14.4131 5.24219 15.125C5.24219 15.8369 5.81934 16.4141 6.53125 16.4141H9.10938C9.82128 16.4141 10.3984 15.8369 10.3984 15.125C10.3984 14.4131 9.82128 13.8359 9.10938 13.8359Z" fill="#009045"/>
<path d="M22 35.3203C15.6029 35.3203 10.3984 30.1159 10.3984 23.7188C10.3984 17.3216 15.6029 12.1172 22 12.1172C28.3971 12.1172 33.6016 17.3216 33.6016 23.7188C33.6016 30.1159 28.3971 35.3203 22 35.3203ZM22 14.6953C17.0245 14.6953 12.9766 18.7432 12.9766 23.7188C12.9766 28.6943 17.0245 32.7422 22 32.7422C26.9755 32.7422 31.0234 28.6943 31.0234 23.7188C31.0234 18.7432 26.9755 14.6953 22 14.6953Z" fill="#009045"/>
<path d="M22 30.1641C18.4461 30.1641 15.5547 27.2727 15.5547 23.7188C15.5547 20.1648 18.4461 17.2734 22 17.2734C25.5539 17.2734 28.4453 20.1648 28.4453 23.7188C28.4453 27.2727 25.5539 30.1641 22 30.1641ZM22 19.8516C19.8676 19.8516 18.1328 21.5864 18.1328 23.7188C18.1328 25.8511 19.8676 27.5859 22 27.5859C24.1324 27.5859 25.8672 25.8511 25.8672 23.7188C25.8672 21.5864 24.1324 19.8516 22 19.8516Z" fill="#009045"/>
</svg>
