<svg width="30" height="30" viewBox="0 0 30 30" fill="none" xmlns="http://www.w3.org/2000/svg">
<rect width="30" height="30" fill="#383838"/>
<g id="MacBook Pro 14&#34; - 1" clip-path="url(#clip0_0_1)">
<rect width="1512" height="4424" transform="translate(-1231 -42)" fill="white"/>
<g id="chat (1) 1">
<g id="Group">
<path id="Vector" d="M15 18.75C14.4375 18.75 14.0625 18.375 14.0625 17.8125C14.1562 16.5938 14.8125 15.5625 15.75 14.8125C16.3125 14.25 16.875 13.6875 16.875 13.125C16.875 12.0938 16.0312 11.25 15 11.25C13.9688 11.25 13.125 12.0938 13.125 13.125C13.125 13.6875 12.75 14.0625 12.1875 14.0625C11.625 14.0625 11.25 13.6875 11.25 13.125C11.25 11.0625 12.9375 9.375 15 9.375C17.0625 9.375 18.75 11.0625 18.75 13.125C18.6562 14.3438 18 15.375 17.0625 16.125C16.5 16.6875 15.9375 17.25 15.9375 17.8125C15.9375 18.375 15.5625 18.75 15 18.75Z" fill="black"/>
<path id="Vector_2" d="M15 21.5625C15.5178 21.5625 15.9375 21.1428 15.9375 20.625C15.9375 20.1072 15.5178 19.6875 15 19.6875C14.4822 19.6875 14.0625 20.1072 14.0625 20.625C14.0625 21.1428 14.4822 21.5625 15 21.5625Z" fill="black"/>
<path id="Vector_3" d="M4.12498 27C3.84373 26.8125 3.74998 26.4375 3.74998 26.0625L4.59373 21.2813C1.12498 15.5625 2.99998 8.06252 8.71873 4.68752C14.4375 1.31252 21.9375 3.09377 25.4062 8.81252C28.875 14.5313 27 22.0313 21.2812 25.5C17.5312 27.75 12.75 27.8438 8.99998 25.5938L5.15623 27.1875C4.68748 27.2813 4.40623 27.1875 4.12498 27ZM8.99998 23.625C9.18748 23.625 9.37498 23.7188 9.46873 23.8125C14.3437 26.9063 20.7187 25.4063 23.7187 20.625C26.7187 15.8438 25.3125 9.37502 20.5312 6.37502C15.75 3.37502 9.37498 4.59377 6.28123 9.46877C4.12498 12.8438 4.12498 17.25 6.28123 20.625C6.37498 20.8125 6.46873 21.0938 6.37498 21.2813L5.81248 24.75L8.53123 23.625H8.99998Z" fill="black"/>
</g>
</g>
</g>
<defs>
<clipPath id="clip0_0_1">
<rect width="1512" height="4424" fill="white" transform="translate(-1231 -42)"/>
</clipPath>
</defs>
</svg>
