<svg width="40" height="37" viewBox="0 0 40 37" fill="none" xmlns="http://www.w3.org/2000/svg">
<path d="M15.4842 36.581C24.0359 36.581 30.9684 29.6485 30.9684 21.0968C30.9684 12.5451 24.0359 5.61261 15.4842 5.61261C6.93252 5.61261 0 12.5451 0 21.0968C0 29.6485 6.93252 36.581 15.4842 36.581Z" fill="#B0EF8F"/>
<path d="M15.6592 33.065L15.4628 32.7303C12.4628 27.6189 4.49069 16.7717 4.41017 16.6628L4.29517 16.5065L7.01122 13.8223L15.6088 19.8257C21.022 12.8013 26.0722 7.97653 29.3664 5.15907C32.97 2.07706 35.3157 0.658197 35.3394 0.644601L35.3927 0.612671H39.9999L39.5598 1.0046C28.2415 11.0858 15.9736 32.5125 15.8514 32.7278L15.6592 33.065Z" fill="#009045"/>
</svg>
