<svg width="29" height="29" viewBox="0 0 29 29" fill="none" xmlns="http://www.w3.org/2000/svg">
<path d="M20.6106 15.195C17.7009 15.2646 17.6961 19.5296 20.6048 19.6069C23.5144 19.5363 23.5183 15.2733 20.6106 15.195ZM19.8517 17.4039C19.8527 16.414 21.3578 16.4101 21.3636 17.4C21.3597 18.387 19.8595 18.3908 19.8517 17.4039Z" fill="black"/>
<path d="M14.8095 13.805C17.7182 13.7315 17.7182 9.46657 14.8095 9.3931C11.8998 9.46753 11.9017 13.7296 14.8095 13.805ZM14.8095 10.8441C15.7984 10.8479 15.7984 12.3521 14.8095 12.3559C13.8206 12.3511 13.8215 10.8499 14.8095 10.8441Z" fill="black"/>
<path d="M22.4172 9.80006C22.134 9.51586 21.6729 9.5149 21.3887 9.79813L12.9883 18.1588C12.6993 18.4363 12.6906 18.8954 12.968 19.1835C13.2513 19.4793 13.7259 19.4803 14.0111 19.1864L22.4124 10.8267C22.6975 10.5444 22.6995 10.0852 22.4172 9.80006Z" fill="black"/>
<path d="M8.55703 10.1858C8.15683 10.1858 7.83203 10.5106 7.83203 10.9108V12.7697C7.83203 13.1699 8.15683 13.4947 8.55703 13.4947C8.95723 13.4947 9.28203 13.1699 9.28203 12.7697V10.9108C9.28203 10.5106 8.95723 10.1858 8.55703 10.1858Z" fill="black"/>
<path d="M8.55703 15.5063C8.15683 15.5063 7.83203 15.8311 7.83203 16.2313V18.0892C7.83203 18.4894 8.15683 18.8142 8.55703 18.8142C8.95723 18.8142 9.28203 18.4894 9.28203 18.0892V16.2313C9.28203 15.8311 8.95723 15.5063 8.55703 15.5063Z" fill="black"/>
<path d="M27.4331 12.1046C28.2519 11.6657 28.7613 10.8102 28.7584 9.88127V7.395C28.7565 5.99817 27.6255 4.86717 26.2286 4.86523H2.77149C1.37465 4.86717 0.243654 5.99817 0.241721 7.395V9.87933C0.238821 10.8083 0.748255 11.6638 1.56702 12.1027C2.89039 12.8112 3.38919 14.4584 2.68062 15.7818C2.42735 16.2545 2.03972 16.6421 1.56702 16.8954C0.747288 17.3352 0.237854 18.1907 0.241721 19.1207V21.605C0.243654 23.0018 1.37465 24.1328 2.77149 24.1348H26.2286C27.6255 24.1328 28.7565 23.0018 28.7584 21.605V19.1207C28.7613 18.1917 28.2519 17.3362 27.4331 16.8973C25.5346 15.9471 25.5491 13.0548 27.4331 12.1046ZM25.0454 16.4662C25.4331 17.1902 26.0266 17.7838 26.7506 18.1714C27.0977 18.3589 27.3123 18.7224 27.3084 19.1168V21.6011C27.3074 22.1976 26.8251 22.6799 26.2286 22.6809H9.28006C9.24042 22.0526 9.52946 20.85 8.55506 20.8259C7.57969 20.8491 7.86969 22.0574 7.83005 22.6848H2.77149C2.17505 22.6838 1.69269 22.2014 1.69172 21.605V19.1207C1.68785 18.7263 1.90245 18.3628 2.24949 18.1753C4.27852 17.0887 5.04122 14.5628 3.95469 12.5338C3.56705 11.8098 2.97352 11.2162 2.24949 10.8286C1.90245 10.6411 1.68785 10.2776 1.69172 9.8832V7.395C1.69269 6.79857 2.17505 6.3162 2.77149 6.31523H7.83005C7.86969 6.94453 7.57872 8.14997 8.55506 8.17413C9.53042 8.15093 9.24042 6.9426 9.28006 6.31523H26.2286C26.8251 6.3162 27.3074 6.79857 27.3084 7.395V9.87933C27.3123 10.2737 27.0977 10.6372 26.7506 10.8247C24.7216 11.9113 23.9579 14.4372 25.0454 16.4662Z" fill="black"/>
</svg>
