<svg width="29" height="29" viewBox="0 0 29 29" fill="none" xmlns="http://www.w3.org/2000/svg">
<path d="M27.26 4.64014H1.74C0.780678 4.64014 0 5.42081 0 6.38014V22.6201C0 23.5795 0.780678 24.3601 1.74 24.3601H27.26C28.2193 24.3601 29 23.5795 29 22.6201V6.38014C29 5.42081 28.2193 4.64014 27.26 4.64014ZM27.84 22.6201C27.84 22.9391 27.579 23.2001 27.26 23.2001H1.74C1.41987 23.2001 1.16 22.9391 1.16 22.6201V6.38014C1.16 6.05995 1.41987 5.80014 1.74 5.80014H27.26C27.579 5.80014 27.84 6.05995 27.84 6.38014V22.6201Z" fill="white"/>
<path d="M28.4201 9.85986H0.580078V12.1799H28.4201V9.85986Z" fill="white"/>
<path d="M28.42 9.27979H0.58C0.259867 9.27979 0 9.5396 0 9.85979V12.1798C0 12.5 0.259867 12.7598 0.58 12.7598H28.42C28.7401 12.7598 29 12.5 29 12.1798V9.85979C29 9.5396 28.7401 9.27979 28.42 9.27979ZM27.84 11.5998H1.16V10.4398H27.84V11.5998Z" fill="white"/>
<path d="M15.6601 16.2402H5.22014C4.9 16.2402 4.64014 16.5001 4.64014 16.8202C4.64014 17.1404 4.9 17.4002 5.22014 17.4002H15.6601C15.9803 17.4002 16.2401 17.1404 16.2401 16.8202C16.2401 16.5 15.9803 16.2402 15.6601 16.2402Z" fill="white"/>
<path d="M11.0201 18.5601H5.22014C4.9 18.5601 4.64014 18.8199 4.64014 19.1401C4.64014 19.4602 4.9 19.7201 5.22014 19.7201H11.0201C11.3403 19.7201 11.6001 19.4602 11.6001 19.1401C11.6001 18.8199 11.3403 18.5601 11.0201 18.5601Z" fill="white"/>
</svg>
