<svg width="24" height="20" viewBox="0 0 24 20" fill="none" xmlns="http://www.w3.org/2000/svg">
<path fill-rule="evenodd" clip-rule="evenodd" d="M6.62086 6.36105L10.9499 1.39938C11.2142 1.09605 11.5977 0.921631 11.9996 0.921631C12.4015 0.921631 12.785 1.09605 13.0494 1.39938L17.3784 6.36105L21.5091 3.75238C21.9717 3.46096 22.5621 3.46638 23.0193 3.76755C23.4764 4.06871 23.7148 4.61038 23.6281 5.15096L21.6651 17.4165C21.5124 18.3741 20.6858 19.0783 19.7173 19.0783H4.28194C3.31344 19.0783 2.48686 18.3741 2.33411 17.4165L0.371109 5.15096C0.284443 4.61038 0.522776 4.06871 0.979943 3.76755C1.43711 3.46638 2.02753 3.46096 2.49011 3.75238L6.62086 6.36105ZM2.05678 5.40121L3.93853 17.1597C3.96561 17.3287 4.11078 17.4533 4.28194 17.4533H19.7173C19.8884 17.4533 20.0336 17.3287 20.0607 17.1597L21.9424 5.40121L18.0782 7.84088C17.4975 8.20813 16.7359 8.09655 16.2842 7.5798L11.9996 2.66796L7.71503 7.5798C7.26328 8.09655 6.50169 8.20813 5.92103 7.84088L2.05678 5.40121Z" fill="black"/>
<path fill-rule="evenodd" clip-rule="evenodd" d="M20.7065 13.3898C21.155 13.3898 21.519 13.7538 21.519 14.2023C21.519 14.6508 21.155 15.0148 20.7065 15.0148H3.29297C2.84447 15.0148 2.48047 14.6508 2.48047 14.2023C2.48047 13.7538 2.84447 13.3898 3.29297 13.3898H20.7065Z" fill="black"/>
</svg>
