<svg width="21" height="26" viewBox="0 0 21 26" fill="none" xmlns="http://www.w3.org/2000/svg">
<path d="M2.81128 2.9737C0.910583 4.87439 -0.0605063 7.32159 0.00291949 10.0508C0.061775 12.5822 1.03865 15.1647 2.75359 17.3224L9.42172 25.7122C9.5662 25.8941 9.78572 26 10.018 26C10.2503 26 10.4698 25.8941 10.6143 25.7122L17.2825 17.3224C18.9974 15.1647 19.9743 12.5823 20.0331 10.0508C20.0966 7.32154 19.1254 4.87434 17.2248 2.9737C15.3071 1.0561 12.7477 0 10.018 0C7.2883 0 4.72893 1.0561 2.81128 2.9737ZM16.1475 4.05092C19.3417 7.24516 19.318 12.3128 16.0898 16.3746L10.018 24.014L3.94619 16.3746C0.717971 12.3128 0.694256 7.24516 3.8885 4.05092C5.57865 2.36082 7.79794 1.51607 10.018 1.51607C12.2375 1.51607 14.4578 2.36123 16.1475 4.05092ZM5.89771 10.337L5.92782 10.3115V14.2886C5.92782 14.7093 6.26887 15.0503 6.68954 15.0503H13.3465C13.7671 15.0503 14.1082 14.7093 14.1082 14.2886V10.3115L14.1383 10.3371C14.2814 10.4583 14.4563 10.5176 14.6303 10.5176C14.8464 10.5176 15.0612 10.4261 15.2119 10.2483C15.4837 9.92728 15.444 9.44663 15.123 9.1747L10.5103 5.26713C10.2262 5.02648 9.80969 5.02648 9.52557 5.26713L4.91291 9.1747C4.59192 9.44663 4.55216 9.92728 4.82404 10.2483C5.09608 10.5692 5.57672 10.6089 5.89771 10.337ZM10.018 6.84653L12.5847 9.02093V13.5269H7.45126V9.02093L10.018 6.84653Z" fill="black"/>
</svg>
