<svg width="16" height="16" viewBox="0 0 16 16" fill="none" xmlns="http://www.w3.org/2000/svg">
<path d="M9.8307 1.25579L10.4856 0.590071C11.2595 -0.19669 12.6065 -0.19669 13.3805 0.590071L13.9088 1.12719C14.2958 1.52057 14.5116 2.04255 14.5116 2.5948C14.5116 3.14704 14.2958 3.6766 13.9088 4.06241L13.254 4.72813L9.8307 1.24823V1.25579ZM9.04186 2.05768L2.26233 8.94941C2.04651 9.16879 1.91256 9.45626 1.89023 9.76643L1.6893 11.983C1.66698 12.2629 1.76372 12.5352 1.95721 12.7395C2.13581 12.921 2.36651 13.0194 2.61209 13.0194H2.69395L4.87442 12.8151C5.17954 12.7849 5.46233 12.6487 5.67814 12.4293L12.4577 5.53759L9.03442 2.05768H9.04186ZM16 15.4326C16 15.1225 15.747 14.8652 15.4419 14.8652H0.55814C0.253023 14.8652 0 15.1225 0 15.4326C0 15.7428 0.253023 16 0.55814 16H15.4419C15.747 16 16 15.7428 16 15.4326Z" fill="black"/>
</svg>
