<svg width="25" height="24" viewBox="0 0 25 24" fill="none" xmlns="http://www.w3.org/2000/svg">
<g id="facebook 1" clip-path="url(#clip0_2071_4224)">
<path id="Vector" fill-rule="evenodd" clip-rule="evenodd" d="M23.6198 0H1.38021C0.617708 0 0 0.593 0 1.325V22.675C0 23.407 0.617708 24 1.38021 24H13.3531V14.706H10.0948V11.084H13.3531V8.413C13.3531 5.313 15.325 3.625 18.2062 3.625C19.5854 3.625 20.7719 3.723 21.1177 3.768V7.008H19.1198C17.5531 7.008 17.25 7.723 17.25 8.771V11.084H20.9854L20.499 14.706H17.249V24H23.6198C24.3823 24 25 23.407 25 22.675V1.325C25 0.593 24.3823 0 23.6198 0Z" fill="white"/>
</g>
<defs>
<clipPath id="clip0_2071_4224">
<rect width="25" height="24" fill="white"/>
</clipPath>
</defs>
</svg>
