<svg width="13" height="18" viewBox="0 0 13 18" fill="none" xmlns="http://www.w3.org/2000/svg">
<path d="M12.0729 0H5.90654C5.82951 0.000171474 5.75374 0.0195158 5.68606 0.0562881C5.61838 0.0930603 5.56091 0.146104 5.51885 0.210633L0.0759812 8.70005C0.0296605 8.77038 0.00349515 8.85207 0.000326447 8.93623C-0.00284226 9.02039 0.0171068 9.10381 0.0580073 9.17743C0.0989078 9.25105 0.159197 9.31206 0.232327 9.35383C0.305457 9.3956 0.388634 9.41654 0.472825 9.41437H4.53895L0.83609 17.3513C0.79139 17.4487 0.782327 17.5588 0.810481 17.6623C0.838635 17.7658 0.90222 17.8561 0.990148 17.9175C1.07808 17.9789 1.18477 18.0075 1.29162 17.9983C1.39847 17.9891 1.4987 17.9427 1.57483 17.8671L12.2103 7.24088C12.2728 7.1763 12.315 7.09485 12.3319 7.00656C12.3487 6.91827 12.3393 6.82699 12.3049 6.74395C12.2706 6.6609 12.2126 6.58973 12.1383 6.53917C12.064 6.48862 11.9765 6.46089 11.8867 6.4594H8.89203L12.4606 0.699056C12.5035 0.629816 12.5271 0.550386 12.5291 0.468957C12.5311 0.387529 12.5113 0.307049 12.4718 0.235817C12.4323 0.164585 12.3745 0.10518 12.3044 0.0637282C12.2342 0.022276 12.1543 0.000277072 12.0729 0Z" fill="white"/>
</svg>
