<svg width="21" height="30" viewBox="0 0 21 30" fill="none" xmlns="http://www.w3.org/2000/svg">
<path d="M20.1215 0H9.84423C9.71585 0.00028579 9.58957 0.0325264 9.47676 0.0938135C9.36396 0.155101 9.26819 0.243506 9.19809 0.351055L0.126635 14.5001C0.0494342 14.6173 0.00582526 14.7534 0.000544079 14.8937C-0.0047371 15.034 0.0285113 15.173 0.0966788 15.2957C0.164846 15.4184 0.265328 15.5201 0.387211 15.5897C0.509095 15.6593 0.647724 15.6942 0.788042 15.6906H7.56492L1.39348 28.9188C1.31898 29.0812 1.30388 29.2647 1.3508 29.4372C1.39773 29.6097 1.5037 29.7602 1.65025 29.8625C1.79679 29.9649 1.97461 30.0125 2.1527 29.9972C2.33078 29.9818 2.49783 29.9045 2.62472 29.7786L20.3504 12.0681C20.4546 11.9605 20.5251 11.8248 20.5531 11.6776C20.5811 11.5305 20.5655 11.3783 20.5082 11.2399C20.4509 11.1015 20.3544 10.9829 20.2305 10.8986C20.1067 10.8144 19.9609 10.7681 19.8111 10.7657H14.82L20.7676 1.16509C20.8391 1.04969 20.8785 0.91731 20.8818 0.781596C20.8851 0.645881 20.8521 0.511748 20.7863 0.393028C20.7204 0.274309 20.6241 0.175301 20.5073 0.106214C20.3904 0.0371266 20.2572 0.000461787 20.1215 0Z" fill="#62CB95"/>
</svg>
