<svg width="12" height="17" viewBox="0 0 12 17" fill="none" xmlns="http://www.w3.org/2000/svg">
<path d="M10.6682 0.330139H5.2193C5.15124 0.330291 5.08428 0.347384 5.02447 0.379878C4.96467 0.412372 4.91389 0.459243 4.87672 0.516264L0.0671407 8.01792C0.0262095 8.08007 0.00308849 8.15225 0.000288465 8.22662C-0.00251156 8.30099 0.0151164 8.3747 0.051258 8.43976C0.0873997 8.50481 0.140674 8.55872 0.205295 8.59563C0.269917 8.63254 0.343416 8.65104 0.417811 8.64913H4.01084L0.73881 15.6625C0.69931 15.7487 0.691302 15.846 0.71618 15.9374C0.741059 16.0288 0.797245 16.1087 0.874943 16.1629C0.95264 16.2172 1.04692 16.2424 1.14134 16.2343C1.23576 16.2262 1.32432 16.1852 1.3916 16.1184L10.7896 6.72853C10.8448 6.67146 10.8822 6.59949 10.897 6.52147C10.9119 6.44346 10.9036 6.36279 10.8732 6.28941C10.8429 6.21604 10.7917 6.15314 10.726 6.10847C10.6603 6.06379 10.583 6.03929 10.5036 6.03798H7.85742L11.0108 0.947859C11.0487 0.886675 11.0696 0.816487 11.0713 0.744532C11.073 0.672578 11.0556 0.601462 11.0207 0.538518C10.9857 0.475575 10.9347 0.423082 10.8727 0.386452C10.8108 0.349823 10.7402 0.330384 10.6682 0.330139Z" fill="#0E0E0E"/>
</svg>
