<svg width="40" height="40" viewBox="0 0 40 40" fill="none" xmlns="http://www.w3.org/2000/svg">
<path d="M14.9247 18.1162C12.1527 18.1162 9.90967 15.8731 9.90967 13.1012C9.90967 10.3293 12.1527 8.08618 14.9247 8.08618C17.6966 8.08618 19.9397 10.3293 19.9397 13.1012C19.9397 15.8731 17.6966 18.1162 14.9247 18.1162ZM14.9247 10.8216C13.6664 10.8216 12.6451 11.8429 12.6451 13.1012C12.6451 14.3595 13.6664 15.3808 14.9247 15.3808C16.183 15.3808 17.2042 14.3595 17.2042 13.1012C17.2042 11.8429 16.183 10.8216 14.9247 10.8216Z" fill="#009045"/>
<path d="M25.8666 40H14.9247C5.02236 40 0.791504 35.7691 0.791504 25.8667V14.9249C0.791504 5.02248 5.02236 0.791626 14.9247 0.791626H22.2193C22.967 0.791626 23.587 1.41166 23.587 2.15936C23.587 2.90705 22.967 3.52709 22.2193 3.52709H14.9247C6.51774 3.52709 3.52697 6.51787 3.52697 14.9249V25.8667C3.52697 34.2737 6.51774 37.2645 14.9247 37.2645H25.8666C34.2736 37.2645 37.2644 34.2737 37.2644 25.8667V16.7485C37.2644 16.0008 37.8844 15.3808 38.6321 15.3808C39.3798 15.3808 39.9998 16.0008 39.9998 16.7485V25.8667C39.9998 35.7691 35.769 40 25.8666 40Z" fill="#009045"/>
<path d="M31.3375 14.4689C30.5898 14.4689 29.9697 13.8489 29.9697 13.1012V2.1593C29.9697 1.61221 30.298 1.10159 30.8086 0.90099C31.3192 0.70039 31.9028 0.809808 32.304 1.19277L35.9513 4.84006C36.4801 5.36892 36.4801 6.24427 35.9513 6.77312C35.4224 7.30198 34.5471 7.30198 34.0182 6.77312L32.7052 5.4601V13.1012C32.7052 13.8489 32.0852 14.4689 31.3375 14.4689Z" fill="#009045"/>
<path d="M27.6901 7.17434C27.3436 7.17434 26.9971 7.04668 26.7235 6.77313C26.1947 6.24428 26.1947 5.36893 26.7235 4.84007L30.3708 1.19278C30.8997 0.663928 31.775 0.663928 32.3039 1.19278C32.8328 1.72164 32.8328 2.59699 32.3039 3.12585L28.6566 6.77313C28.3831 7.04668 28.0366 7.17434 27.6901 7.17434Z" fill="#009045"/>
<path d="M3.38064 34.438C2.94297 34.438 2.5053 34.2192 2.24999 33.8362C1.83055 33.2162 1.99468 32.3591 2.61471 31.9396L11.6053 25.9034C13.5748 24.5904 16.292 24.7362 18.0792 26.2499L18.681 26.7787C19.5928 27.5629 21.1429 27.5629 22.0365 26.7787L29.6229 20.2683C31.5559 18.6088 34.6014 18.6088 36.5527 20.2683L39.5253 22.8214C40.0906 23.3138 40.1635 24.1709 39.6711 24.7545C39.1788 25.3198 38.3034 25.3928 37.7381 24.9004L34.7655 22.3473C33.8537 21.5631 32.3219 21.5631 31.41 22.3473L23.8237 28.8577C21.8906 30.5172 18.8451 30.5172 16.8938 28.8577L16.292 28.3288C15.4532 27.6176 14.0672 27.5447 13.1372 28.1829L4.16481 34.2192C3.9095 34.3651 3.63595 34.438 3.38064 34.438Z" fill="#009045"/>
</svg>
