<svg width="142" height="40" viewBox="0 0 142 40" fill="none" xmlns="http://www.w3.org/2000/svg">
<g clip-path="url(#clip0_2060_2735)">
<path d="M136.741 0H5.25926C2.35465 0 0 2.23858 0 5V35C0 37.7614 2.35465 40 5.25926 40H136.741C139.645 40 142 37.7614 142 35V5C142 2.23858 139.645 0 136.741 0Z" fill="black"/>
<path d="M136.741 0.8C139.181 0.8 141.159 2.6804 141.159 5V35C141.159 37.3196 139.181 39.2 136.741 39.2H5.25926C2.81938 39.2 0.841482 37.3196 0.841482 35V5C0.841482 2.6804 2.81938 0.8 5.25926 0.8H136.741ZM136.741 0H5.25926C2.35465 0 0 2.23858 0 5V35C0 37.7614 2.35465 40 5.25926 40H136.741C139.645 40 142 37.7614 142 35V5C142 2.23858 139.645 0 136.741 0Z" fill="#A6A6A6"/>
<path d="M71.6732 21.7501C69.2071 21.7612 67.2162 23.6688 67.2239 26.0134C67.2316 28.358 69.2351 30.2537 71.7012 30.2501C74.1674 30.2464 76.1646 28.3447 76.1646 26.0001C76.1819 24.8645 75.7136 23.7708 74.8669 22.9696C74.0202 22.1684 72.8676 21.7283 71.6732 21.7501ZM71.6732 28.5801C70.5616 28.654 69.5155 28.0744 69.0352 27.1186C68.5549 26.1627 68.738 25.0248 69.4969 24.2492C70.2558 23.4735 71.4364 23.2178 72.4739 23.6042C73.5113 23.9907 74.1949 24.9408 74.1977 26.0001C74.2318 26.6628 73.9831 27.3105 73.5077 27.7963C73.0324 28.2821 72.3709 28.5648 71.6732 28.5801ZM61.8805 21.7501C59.4129 21.7557 57.4168 23.6609 57.4206 26.0068C57.4245 28.3527 59.4269 30.252 61.8945 30.2501C64.362 30.2482 66.3614 28.346 66.3614 26.0001C66.3787 24.8645 65.9104 23.7708 65.0636 22.9696C64.2169 22.1684 63.0644 21.7283 61.87 21.7501H61.8805ZM61.8805 28.5801C60.7683 28.6582 59.7191 28.0815 59.2354 27.1262C58.7517 26.171 58.9319 25.0316 59.6898 24.2538C60.4477 23.4761 61.6289 23.2182 62.6677 23.6038C63.7065 23.9894 64.3914 24.9399 64.3945 26.0001C64.4287 26.6628 64.1799 27.3105 63.7046 27.7963C63.2293 28.2821 62.5677 28.5648 61.87 28.5801H61.8805ZM50.2154 23.0601V24.8601H54.7594C54.6882 25.7079 54.3175 26.5079 53.7076 27.1301C52.7883 28.0204 51.5161 28.4998 50.2049 28.4501C47.4165 28.4501 45.156 26.3011 45.156 23.6501C45.156 20.9992 47.4165 18.8501 50.2049 18.8501C51.4859 18.8303 52.7228 19.2942 53.6445 20.1401L54.9803 18.8701C53.7233 17.66 52.0043 16.9854 50.2154 17.0001C47.6689 16.9059 45.2722 18.1438 43.9694 20.2262C42.6666 22.3086 42.6666 24.9017 43.9694 26.9841C45.2721 29.0665 47.6689 30.3044 50.2154 30.2101C52.037 30.2884 53.8051 29.6138 55.0645 28.3601C56.1665 27.2091 56.7548 25.6959 56.7054 24.1401C56.7088 23.7611 56.6735 23.3827 56.6002 23.0101L50.2154 23.0601ZM97.8748 24.4601C97.3132 22.8893 95.79 21.8112 94.0461 21.7501C92.8831 21.748 91.7711 22.2035 90.974 23.0087C90.177 23.8138 89.766 24.8967 89.8387 26.0001C89.8129 27.1294 90.2712 28.2202 91.1083 29.0217C91.9455 29.8233 93.0895 30.2667 94.2775 30.2501C95.772 30.2578 97.1708 29.5516 98.0011 28.3701L96.4759 27.3701C96.0128 28.1041 95.1777 28.5523 94.2775 28.5501C93.3451 28.5839 92.4858 28.0723 92.1107 27.2601L98.0957 24.9101L97.8748 24.4601ZM91.7741 25.8801C91.731 25.2553 91.9543 24.6403 92.3936 24.1737C92.8329 23.7072 93.4513 23.4284 94.1092 23.4001C94.8028 23.3567 95.4567 23.7108 95.7711 24.3001L91.7741 25.8801ZM86.9145 30.0001H88.8815V17.5001H86.9145V30.0001ZM83.6959 22.7001H83.6222C83.0227 22.0628 82.1655 21.699 81.2661 21.7001C78.8786 21.8102 77.0023 23.6826 77.0023 25.9551C77.0023 28.2277 78.8785 30.1001 81.2661 30.2101C82.1684 30.2246 83.0311 29.8584 83.6222 29.2101H83.6854V29.8201C83.6854 31.4501 82.7703 32.3201 81.2977 32.3201C80.2945 32.2978 79.4051 31.7012 79.0467 30.8101L77.3322 31.4901C77.9924 33.0169 79.5613 34.01 81.2977 34.0001C83.6012 34.0001 85.5051 32.7101 85.5051 29.5701V22.0001H83.6959V22.7001ZM81.4449 28.5801C80.0385 28.4623 78.9598 27.3424 78.9598 26.0001C78.9598 24.6578 80.0385 23.538 81.4449 23.4201C82.1245 23.4533 82.7613 23.7459 83.2108 24.2316C83.6603 24.7174 83.8845 25.3551 83.8326 26.0001C83.8906 26.6482 83.6671 27.2906 83.2141 27.7779C82.7611 28.2653 82.118 28.5551 81.4344 28.5801H81.4449ZM107.089 17.5001H102.387V30.0001H104.354V25.2601H107.1C108.628 25.3645 110.089 24.6486 110.886 23.4051C111.684 22.1616 111.684 20.5987 110.886 19.3552C110.089 18.1116 108.628 17.3958 107.1 17.5001H107.089ZM107.089 23.5001H104.344V19.2401H107.131C108.377 19.2401 109.387 20.2005 109.387 21.3851C109.387 22.5698 108.377 23.5301 107.131 23.5301L107.089 23.5001ZM119.217 21.7001C117.753 21.617 116.378 22.3672 115.714 23.6101L117.46 24.3001C117.812 23.6838 118.513 23.323 119.248 23.3801C119.753 23.3241 120.26 23.4631 120.655 23.7658C121.051 24.0686 121.302 24.5097 121.352 24.9901V25.1201C120.72 24.8021 120.016 24.6373 119.301 24.6401C117.418 24.6401 115.514 25.6401 115.514 27.4501C115.552 28.2298 115.92 28.962 116.534 29.4799C117.148 29.9979 117.956 30.2577 118.775 30.2001C119.784 30.269 120.752 29.8088 121.3 29.0001H121.363V30.0001H123.256V25.1901C123.256 23.0001 121.51 21.7301 119.27 21.7301L119.217 21.7001ZM118.975 28.5501C118.333 28.5501 117.439 28.2401 117.439 27.4901C117.439 26.4901 118.554 26.1601 119.543 26.1601C120.168 26.1455 120.785 26.2905 121.331 26.5801C121.195 27.6996 120.213 28.5527 119.028 28.5801L118.975 28.5501ZM130.156 22.0001L127.905 27.4201H127.842L125.507 22.0001H123.403L126.906 29.5801L124.907 33.7901H126.959L132.344 22.0001H130.156ZM112.475 30.0001H114.442V17.5001H112.475V30.0001Z" fill="white"/>
<path d="M21.7912 19.4238L10.5922 30.7238L10.5943 30.7308C10.7146 31.159 10.9375 31.5549 11.2455 31.8876C11.5534 32.2203 11.9382 32.4808 12.3696 32.6487C12.801 32.8166 13.2675 32.8874 13.7324 32.8555C14.1974 32.8236 14.6483 32.6899 15.0499 32.4648L15.0857 32.4448L27.6911 25.5298L21.7912 19.4238Z" fill="#EB3131"/>
<path d="M33.1207 17.5002L33.1101 17.4932L27.6679 14.4932L21.5366 19.6812L27.69 25.5292L33.1028 22.5602C33.5823 22.3142 33.9831 21.9499 34.2631 21.5055C34.5431 21.0611 34.6918 20.5532 34.6937 20.0352C34.6955 19.5172 34.5504 19.0084 34.2735 18.5622C33.9967 18.1161 33.5984 17.7492 33.1207 17.5002Z" fill="#F6B60B"/>
<path d="M10.5921 9.27686C10.5235 9.51811 10.4888 9.76694 10.489 10.0169V29.9849C10.489 30.2409 10.5248 30.4889 10.5931 30.7249L22.1761 19.7129L10.5921 9.27686Z" fill="#5778C5"/>
<path d="M21.8743 20.0012L27.67 14.4922L15.0794 7.55217C14.6774 7.32206 14.2247 7.18392 13.757 7.14866C13.2893 7.11339 12.8194 7.18196 12.3843 7.34896C11.9493 7.51596 11.561 7.7768 11.2502 8.11092C10.9393 8.44503 10.7144 8.84326 10.5932 9.27417L10.5922 9.27717L21.8743 20.0012Z" fill="#3BAD49"/>
<path opacity="0.2" d="M28.4 24.1299L13.1587 32.3799C12.535 32.8232 11.6787 32.8232 11.055 32.3799L10.9813 32.4499L11.055 32.5199C11.6775 32.9666 12.5361 32.9666 13.1587 32.5199L28.5262 24.2199L28.4 24.1299Z" fill="black"/>
<path opacity="0.12" d="M10.9813 32.32C10.6384 31.9289 10.4654 31.4282 10.4974 30.92V31.07C10.4654 31.5782 10.6384 32.0789 10.9813 32.47L11.0549 32.4L10.9813 32.32ZM33.6592 21.3L28.3999 24.13L28.4946 24.22L33.6592 21.44C34.2557 21.1736 34.6569 20.6244 34.7111 20C34.5912 20.5648 34.2027 21.045 33.6592 21.3Z" fill="black"/>
<path opacity="0.25" d="M13.1586 7.61994L33.6592 18.6999C34.2027 18.955 34.5912 19.4351 34.7111 19.9999C34.6569 19.3755 34.2557 18.8263 33.6592 18.5599L13.1586 7.47994C11.686 6.68994 10.4869 7.34994 10.4869 8.94994V9.09994C10.5185 7.48994 11.6966 6.82994 13.1586 7.61994Z" fill="white"/>
<path fill-rule="evenodd" clip-rule="evenodd" d="M43.4424 7.31982V13.3198H45.3357C46.2824 13.3198 47.1239 13.0198 47.6498 12.5198C48.1757 11.9198 48.4913 11.2198 48.4913 10.3198C48.4913 9.41982 48.2809 8.71982 47.6498 8.11982C47.1239 7.61982 46.2824 7.31982 45.3357 7.31982H43.4424ZM45.4409 12.6198H44.2839V8.01982H45.4409C46.072 8.01982 46.7031 8.21982 47.1239 8.61982C47.5446 9.01982 47.755 9.61982 47.755 10.3198C47.755 11.0198 47.5446 11.6198 47.1239 12.0198C46.7031 12.4198 46.1772 12.6198 45.4409 12.6198Z" fill="white"/>
<path d="M43.4423 13.3202H43.3372V13.4202H43.4423V13.3202ZM43.4423 7.32022V7.22021H43.3372V7.32022H43.4423ZM47.6497 12.5202L47.7244 12.5912L47.7305 12.5842L47.6497 12.5202ZM44.2838 12.6202H44.1786V12.7202H44.2838V12.6202ZM44.2838 8.02022V7.92022H44.1786V8.02022H44.2838ZM43.5475 13.3202V7.32022H43.3372V13.3202H43.5475ZM45.3357 13.2202H43.4423V13.4202H45.3357V13.2202ZM47.5754 12.4495C47.0733 12.9267 46.261 13.2202 45.3357 13.2202V13.4202C46.3037 13.4202 47.1745 13.114 47.7244 12.5912L47.5754 12.4495ZM48.386 10.3202C48.386 11.1947 48.0806 11.8725 47.569 12.4562L47.7305 12.5842C48.2708 11.9679 48.5964 11.2457 48.5964 10.3202H48.386ZM47.5754 8.19092C48.1807 8.76643 48.386 9.43734 48.386 10.3202H48.5964C48.5964 9.40307 48.381 8.67399 47.7241 8.04951L47.5754 8.19092ZM45.3357 7.42022C46.261 7.42022 47.0733 7.71367 47.5754 8.19092L47.7241 8.04951C47.1742 7.52675 46.3037 7.22021 45.3357 7.22021V7.42022ZM43.4423 7.42022H45.3357V7.22021H43.4423V7.42022ZM44.2838 12.7202H45.4409V12.5202H44.2838V12.7202ZM44.1786 8.02022V12.6202H44.389V8.02022H44.1786ZM45.4409 7.92022H44.2838V8.12022H45.4409V7.92022ZM47.1982 8.54951C46.7533 8.12651 46.0928 7.92022 45.4409 7.92022V8.12022C46.051 8.12022 46.6529 8.31392 47.0495 8.69092L47.1982 8.54951ZM47.8601 10.3202C47.8601 9.60263 47.6444 8.97376 47.1982 8.54951L47.0495 8.69092C47.4446 9.06667 47.6497 9.63778 47.6497 10.3202H47.8601ZM47.1982 12.0909C47.6444 11.6667 47.8601 11.0378 47.8601 10.3202H47.6497C47.6497 11.0026 47.4446 11.5737 47.0495 11.9495L47.1982 12.0909ZM45.4409 12.7202C46.2005 12.7202 46.7547 12.5125 47.1982 12.0909L47.0495 11.9495C46.6514 12.3279 46.1537 12.5202 45.4409 12.5202V12.7202Z" fill="white"/>
<path fill-rule="evenodd" clip-rule="evenodd" d="M49.649 13.3201V7.32013H50.4905V13.3201H49.649ZM53.7496 13.4201C53.3288 13.4201 52.8029 13.3201 52.3822 13.0201C51.9614 12.7201 51.6459 12.3201 51.5407 11.8201L52.277 11.5201C52.3822 11.8201 52.5926 12.1201 52.8029 12.3201C53.1185 12.5201 53.434 12.6201 53.7496 12.6201C54.0651 12.6201 54.3807 12.5201 54.6963 12.3201C54.9066 12.1201 55.117 11.9201 55.117 11.6201C55.117 11.3201 55.0118 11.0201 54.6963 10.8201C54.4859 10.6201 54.0651 10.4201 53.5392 10.3201C53.0133 10.1201 52.5926 9.92012 52.277 9.72012C51.9614 9.42012 51.8563 9.12012 51.8563 8.72012C51.8563 8.32012 52.0666 7.92012 52.3822 7.62012C52.6977 7.32012 53.2237 7.12012 53.7496 7.12012C54.2755 7.12012 54.6963 7.22012 55.0118 7.52012C55.3274 7.82012 55.5377 8.02012 55.6429 8.32012L54.9066 8.62012C54.8014 8.42012 54.6963 8.22012 54.4859 8.12012C54.2755 7.92012 53.96 7.92012 53.6444 7.92012C53.3288 7.92012 53.1185 8.02012 52.8029 8.12012C52.6977 8.32012 52.5926 8.52012 52.5926 8.82012C52.5926 9.02012 52.6977 9.22012 52.9081 9.42012C53.1185 9.62012 53.434 9.72012 53.8548 9.82012C54.1703 9.92012 54.3807 10.0201 54.5911 10.1201C54.8014 10.2201 55.0118 10.3201 55.2222 10.5201C55.4326 10.6201 55.6429 10.8201 55.7481 11.1201C55.8533 11.3201 55.9585 11.6201 55.9585 11.9201C55.9585 12.2201 55.8533 12.5201 55.7481 12.7201C55.6429 12.9201 55.4326 13.1201 55.2222 13.2201C54.9066 13.2201 54.6963 13.3201 54.4859 13.3201C54.2755 13.4201 53.96 13.4201 53.7496 13.4201Z" fill="white" stroke="white" stroke-width="0.2"/>
<path fill-rule="evenodd" clip-rule="evenodd" d="M57.0116 13.3198H57.8531V10.9198H59.1153C59.6412 10.9198 60.062 10.7198 60.4827 10.4198C60.9035 10.0198 61.1138 9.61982 61.1138 9.11982C61.1138 8.61982 60.9035 8.11982 60.4827 7.81982C60.062 7.51982 59.6412 7.31982 59.1153 7.31982H57.0116V13.3198ZM59.2205 10.1198H57.8531V8.11982H59.2205C59.536 8.11982 59.8516 8.21982 60.062 8.41982C60.2723 8.61982 60.3775 8.81982 60.3775 9.11982C60.3775 9.31982 60.2723 9.61982 60.062 9.81982C59.8516 10.0198 59.536 10.1198 59.2205 10.1198Z" fill="white"/>
<path d="M57.8532 13.3202V13.4202H57.9583V13.3202H57.8532ZM57.0117 13.3202H56.9065V13.4202H57.0117V13.3202ZM57.8532 10.9202V10.8202H57.748V10.9202H57.8532ZM60.4828 10.4202L60.5459 10.5002L60.5519 10.4959L60.5572 10.4909L60.4828 10.4202ZM57.0117 7.32022V7.22021H56.9065V7.32022H57.0117ZM57.8532 10.1202H57.748V10.2202H57.8532V10.1202ZM57.8532 8.12022V8.02022H57.748V8.12022H57.8532ZM57.8532 13.2202H57.0117V13.4202H57.8532V13.2202ZM57.748 10.9202V13.3202H57.9583V10.9202H57.748ZM59.1154 10.8202H57.8532V11.0202H59.1154V10.8202ZM60.4197 10.3402C60.0081 10.6336 59.6094 10.8202 59.1154 10.8202V11.0202C59.6732 11.0202 60.1159 10.8068 60.5459 10.5002L60.4197 10.3402ZM61.0087 9.12022C61.0087 9.58728 60.8148 9.96318 60.4084 10.3495L60.5572 10.4909C60.9923 10.0772 61.2191 9.65315 61.2191 9.12022H61.0087ZM60.4197 7.90022C60.8084 8.17746 61.0087 8.64462 61.0087 9.12022H61.2191C61.2191 8.59582 60.9985 8.06297 60.5459 7.74021L60.4197 7.90022ZM59.1154 7.42022C59.6094 7.42022 60.0081 7.6068 60.4197 7.90022L60.5459 7.74021C60.1159 7.43363 59.6732 7.22021 59.1154 7.22021V7.42022ZM57.0117 7.42022H59.1154V7.22021H57.0117V7.42022ZM57.1169 13.3202V7.32022H56.9065V13.3202H57.1169ZM57.8532 10.2202H59.2206V10.0202H57.8532V10.2202ZM57.748 8.12022V10.1202H57.9583V8.12022H57.748ZM59.2206 8.02022H57.8532V8.22021H59.2206V8.02022ZM60.1364 8.34951C59.9019 8.12651 59.557 8.02022 59.2206 8.02022V8.22021C59.5152 8.22021 59.8015 8.31392 59.9877 8.49092L60.1364 8.34951ZM60.4828 9.12022C60.4828 8.95855 60.4543 8.81934 60.3949 8.69209C60.3355 8.56528 60.2478 8.45541 60.1364 8.34951L59.9877 8.49092C60.0867 8.58501 60.1567 8.67514 60.2026 8.77332C60.2482 8.87107 60.2724 8.98189 60.2724 9.12022H60.4828ZM60.1364 9.89093C60.3678 9.67095 60.4828 9.34495 60.4828 9.12022H60.2724C60.2724 9.29548 60.177 9.56948 59.9877 9.74951L60.1364 9.89093ZM59.2206 10.2202C59.557 10.2202 59.9019 10.1139 60.1364 9.89093L59.9877 9.74951C59.8015 9.92651 59.5152 10.0202 59.2206 10.0202V10.2202Z" fill="white"/>
<path fill-rule="evenodd" clip-rule="evenodd" d="M65.0057 13.4202C65.9524 13.4202 66.6887 13.1202 67.3198 12.5202C67.9509 11.9202 68.2665 11.2202 68.2665 10.3202C68.2665 9.42021 67.9509 8.72021 67.3198 8.12021C66.6887 7.52021 65.9524 7.22021 65.0057 7.22021C64.0591 7.22021 63.3228 7.52021 62.6917 8.12021C62.0606 8.72021 61.745 9.42021 61.745 10.3202C61.745 11.2202 62.0606 11.9202 62.6917 12.5202C63.3228 13.1202 64.0591 13.4202 65.0057 13.4202ZM65.0057 12.7202C64.3746 12.7202 63.7435 12.4202 63.3228 12.0202C62.7968 11.6202 62.5865 11.0202 62.5865 10.3202C62.5865 9.62021 62.902 9.02021 63.3228 8.62021C63.7435 8.12021 64.3746 7.92022 65.0057 7.92022C65.6368 7.92022 66.268 8.22021 66.6887 8.62021C67.2146 9.02021 67.425 9.62021 67.425 10.3202C67.425 11.0202 67.1094 11.6202 66.6887 12.0202C66.268 12.5202 65.6368 12.7202 65.0057 12.7202Z" fill="white"/>
<path d="M63.3227 12.0201L63.3975 11.949L63.3884 11.942L63.3227 12.0201ZM63.3227 8.62012L63.3975 8.69127L63.4049 8.68259L63.3227 8.62012ZM66.6887 8.62012L66.6138 8.69127L66.6229 8.69821L66.6887 8.62012ZM66.6887 12.0201L66.6138 11.949L66.6065 11.9576L66.6887 12.0201ZM67.2454 12.4494C66.6341 13.0306 65.9245 13.3201 65.0057 13.3201V13.5201C65.9801 13.5201 66.7432 13.2096 67.3941 12.5908L67.2454 12.4494ZM68.1613 10.3201C68.1613 11.1936 67.8567 11.8682 67.2454 12.4494L67.3941 12.5908C68.045 11.972 68.3716 11.2466 68.3716 10.3201H68.1613ZM67.2454 8.19083C67.8567 8.77204 68.1613 9.44659 68.1613 10.3201H68.3716C68.3716 9.39365 68.045 8.6682 67.3941 8.04941L67.2454 8.19083ZM65.0057 7.32012C65.9245 7.32012 66.6341 7.60962 67.2454 8.19083L67.3941 8.04941C66.7432 7.43062 65.9801 7.12012 65.0057 7.12012V7.32012ZM62.766 8.19083C63.3773 7.60962 64.0868 7.32012 65.0057 7.32012V7.12012C64.0312 7.12012 63.2681 7.43062 62.6173 8.04941L62.766 8.19083ZM61.8501 10.3201C61.8501 9.44659 62.1547 8.77204 62.766 8.19083L62.6173 8.04941C61.9664 8.6682 61.6398 9.39365 61.6398 10.3201H61.8501ZM62.766 12.4494C62.1547 11.8682 61.8501 11.1936 61.8501 10.3201H61.6398C61.6398 11.2466 61.9664 11.972 62.6173 12.5908L62.766 12.4494ZM65.0057 13.3201C64.0868 13.3201 63.3773 13.0306 62.766 12.4494L62.6173 12.5908C63.2681 13.2096 64.0312 13.5201 65.0057 13.5201V13.3201ZM63.2484 12.0908C63.685 12.506 64.3418 12.8201 65.0057 12.8201V12.6201C64.4074 12.6201 63.8023 12.3338 63.3975 11.949L63.2484 12.0908ZM62.4813 10.3201C62.4813 11.0385 62.6977 11.6728 63.257 12.0982L63.3884 11.942C62.8958 11.5674 62.6916 11.0017 62.6916 10.3201H62.4813ZM63.2484 8.54941C62.8097 8.96635 62.4813 9.59114 62.4813 10.3201H62.6916C62.6916 9.64911 62.9946 9.07433 63.3975 8.69127L63.2484 8.54941ZM65.0057 7.82012C64.3525 7.82012 63.6867 8.02747 63.2406 8.55765L63.4049 8.68259C63.8002 8.21278 64.3967 8.02012 65.0057 8.02012V7.82012ZM66.763 8.54941C66.3263 8.13426 65.6696 7.82012 65.0057 7.82012V8.02012C65.604 8.02012 66.2089 8.30642 66.6138 8.69127L66.763 8.54941ZM67.5301 10.3201C67.5301 9.6017 67.3136 8.9674 66.7543 8.54203L66.6229 8.69821C67.1155 9.07284 67.3198 9.63854 67.3198 10.3201H67.5301ZM66.763 12.0908C67.2015 11.6739 67.5301 11.0491 67.5301 10.3201H67.3198C67.3198 10.9911 67.0166 11.5659 66.6138 11.949L66.763 12.0908ZM65.0057 12.8201C65.6589 12.8201 66.3246 12.6128 66.7708 12.0826L66.6065 11.9576C66.2111 12.4274 65.6147 12.6201 65.0057 12.6201V12.8201Z" fill="white"/>
<path fill-rule="evenodd" clip-rule="evenodd" d="M69.4222 13.3198V7.31982H70.3689L73.4193 12.0198V7.31982H74.2608V13.3198H73.4193L70.1585 8.41982V13.3198H69.4222ZM75.7338 13.3198V7.31982H76.5753V13.3198H75.7338Z" fill="white" stroke="white" stroke-width="0.2"/>
<path fill-rule="evenodd" clip-rule="evenodd" d="M77.9438 13.3198V7.31982H80.2579C80.7838 7.31982 81.2046 7.51982 81.5201 7.81982C81.8357 8.11982 82.0461 8.51982 82.0461 9.01982C82.0461 9.2572 81.9801 9.43198 81.9006 9.64323C81.8796 9.69895 81.8576 9.75721 81.8357 9.81982C81.7305 10.0198 81.5201 10.2198 81.2046 10.3198C81.5201 10.4198 81.7305 10.6198 81.9409 10.8198C82.1513 11.0198 82.2564 11.3198 82.2564 11.7198C82.2564 12.2198 82.0461 12.6198 81.7305 12.9198C81.3098 13.2198 80.889 13.4198 80.3631 13.4198H77.9438V13.3198ZM78.7853 9.91982H80.2579C80.5735 9.91982 80.7838 9.81982 80.9942 9.61982C81.2046 9.41982 81.3098 9.21982 81.3098 9.01982C81.3098 8.86703 81.1869 8.65589 81.0821 8.47555C81.0496 8.41982 81.019 8.36703 80.9942 8.31982C80.7838 8.11982 80.5735 8.01982 80.2579 8.01982H78.7853V9.91982ZM80.4683 12.6198H78.8905V10.6198H80.4683C80.7838 10.6198 80.9942 10.7198 81.2046 10.9198C81.415 11.1198 81.5201 11.4198 81.5201 11.6198C81.5201 11.9198 81.415 12.1198 81.2046 12.3198C80.9942 12.5198 80.7838 12.6198 80.4683 12.6198Z" fill="white"/>
<path d="M77.9439 7.32022V7.22021H77.8387V7.32022H77.9439ZM81.9007 9.64363L81.8016 9.60989L81.8013 9.6109L81.9007 9.64363ZM81.9007 9.64363L81.9997 9.67737L82.0001 9.67636L81.9007 9.64363ZM81.8358 9.82022L81.9298 9.86493L81.9332 9.85857L81.9355 9.85184L81.8358 9.82022ZM81.2047 10.3202L81.1713 10.2253L80.872 10.3202L81.1713 10.4151L81.2047 10.3202ZM81.7306 12.9202L81.7937 13.0002L81.7996 12.9959L81.805 12.9909L81.7306 12.9202ZM77.9439 13.4202H77.8387V13.5202H77.9439V13.4202ZM78.7854 9.92021H78.6802V10.0202H78.7854V9.92021ZM80.9943 8.32022L81.0883 8.27549L81.0807 8.26097L81.0687 8.24951L80.9943 8.32022ZM78.7854 8.02022V7.92022H78.6802V8.02022H78.7854ZM78.8906 12.6202H78.7854V12.7202H78.8906V12.6202ZM78.8906 10.6202V10.5202H78.7854V10.6202H78.8906ZM77.8387 7.32022V13.3202H78.0491V7.32022H77.8387ZM80.258 7.22021H77.9439V7.42022H80.258V7.22021ZM81.5946 7.74951C81.2615 7.43281 80.8147 7.22021 80.258 7.22021V7.42022C80.7531 7.42022 81.1478 7.60761 81.4459 7.89092L81.5946 7.74951ZM82.1513 9.02022C82.1513 8.49092 81.9277 8.0662 81.5946 7.74951L81.4459 7.89092C81.7438 8.17422 81.941 8.54952 81.941 9.02022H82.1513ZM81.9997 9.67737C82.079 9.46683 82.1513 9.27701 82.1513 9.02022H81.941C81.941 9.23818 81.8815 9.39793 81.8016 9.60989L81.9997 9.67737ZM81.9355 9.85184C81.9571 9.79044 81.9786 9.7332 81.9997 9.67737L81.8016 9.60989C81.7807 9.66549 81.7584 9.72477 81.736 9.78858L81.9355 9.85184ZM81.2379 10.4151C81.5805 10.3065 81.8124 10.0881 81.9298 9.86493L81.7416 9.77549C81.6487 9.95233 81.4598 10.1339 81.1713 10.2253L81.2379 10.4151ZM82.0153 10.7495C81.8069 10.5513 81.5803 10.3338 81.2379 10.2253L81.1713 10.4151C81.4601 10.5066 81.6543 10.6891 81.8666 10.8909L82.0153 10.7495ZM82.3617 11.7202C82.3617 11.3048 82.2523 10.9749 82.0153 10.7495L81.8666 10.8909C82.0503 11.0656 82.1513 11.3356 82.1513 11.7202H82.3617ZM81.805 12.9909C82.1381 12.6742 82.3617 12.2495 82.3617 11.7202H82.1513C82.1513 12.1909 81.9542 12.5662 81.6562 12.8495L81.805 12.9909ZM80.3632 13.5202C80.921 13.5202 81.3637 13.3068 81.7937 13.0002L81.6675 12.8402C81.2559 13.1336 80.8572 13.3202 80.3632 13.3202V13.5202ZM77.9439 13.5202H80.3632V13.3202H77.9439V13.5202ZM77.8387 13.3202V13.4202H78.0491V13.3202H77.8387ZM80.258 9.82022H78.7854V10.0202H80.258V9.82022ZM80.9199 9.54951C80.821 9.6436 80.7261 9.71019 80.6228 9.75383C80.52 9.79727 80.4035 9.82022 80.258 9.82022V10.0202C80.428 10.0202 80.5744 9.99314 80.7083 9.93659C80.8417 9.88023 80.9573 9.79682 81.0687 9.69092L80.9199 9.54951ZM81.2047 9.02022C81.2047 9.18433 81.1188 9.36041 80.9199 9.54951L81.0687 9.69092C81.2905 9.48002 81.415 9.25608 81.415 9.02022H81.2047ZM80.9901 8.52431C81.043 8.6153 81.0975 8.70917 81.139 8.79875C81.1816 8.8904 81.2047 8.96553 81.2047 9.02022H81.415C81.415 8.92212 81.3766 8.81527 81.3315 8.71805C81.2856 8.61879 81.2262 8.51691 81.1743 8.42756L80.9901 8.52431ZM80.9002 8.36493C80.9261 8.41436 80.958 8.46909 80.9901 8.52431L81.1743 8.42756C81.1416 8.37132 81.112 8.32048 81.0883 8.27549L80.9002 8.36493ZM80.258 8.12022C80.4035 8.12022 80.52 8.14314 80.6228 8.18659C80.7261 8.23023 80.821 8.29683 80.9199 8.39093L81.0687 8.24951C80.9573 8.1436 80.8417 8.06019 80.7083 8.00383C80.5744 7.94727 80.428 7.92022 80.258 7.92022V8.12022ZM78.7854 8.12022H80.258V7.92022H78.7854V8.12022ZM78.8906 9.92021V8.02022H78.6802V9.92021H78.8906ZM78.8906 12.7202H80.4684V12.5202H78.8906V12.7202ZM78.7854 10.6202V12.6202H78.9958V10.6202H78.7854ZM80.4684 10.5202H78.8906V10.7202H80.4684V10.5202ZM81.279 10.8495C81.1676 10.7436 81.052 10.6602 80.9187 10.6038C80.7848 10.5473 80.6384 10.5202 80.4684 10.5202V10.7202C80.6138 10.7202 80.7304 10.7431 80.8332 10.7866C80.9364 10.8302 81.0313 10.8968 81.1303 10.9909L81.279 10.8495ZM81.6254 11.6202C81.6254 11.3955 81.5104 11.0695 81.279 10.8495L81.1303 10.9909C81.3196 11.1709 81.415 11.4449 81.415 11.6202H81.6254ZM81.279 12.3909C81.3904 12.285 81.4781 12.1751 81.5374 12.0483C81.5969 11.9211 81.6254 11.7819 81.6254 11.6202H81.415C81.415 11.7585 81.3908 11.8693 81.3452 11.9671C81.2992 12.0653 81.2292 12.1554 81.1303 12.2495L81.279 12.3909ZM80.4684 12.7202C80.6384 12.7202 80.7848 12.6931 80.9187 12.6366C81.052 12.5802 81.1676 12.4968 81.279 12.3909L81.1303 12.2495C81.0313 12.3436 80.9364 12.4102 80.8332 12.4538C80.7304 12.4973 80.6138 12.5202 80.4684 12.5202V12.7202Z" fill="white"/>
<path fill-rule="evenodd" clip-rule="evenodd" d="M83.308 13.3198V7.31982H84.1495V12.6198H86.8843V13.3198H83.308ZM91.618 8.01982H88.778V9.91982H91.4077V10.6198H88.778V12.5198H91.618V13.3198H87.9366V7.31982H91.618V8.01982ZM98.6646 8.01982H95.8246V9.91982H98.4542V10.6198H95.8246V12.5198H98.6646V13.3198H94.9831V7.31982H98.6646V8.01982ZM99.926 13.3198V7.31982H100.873L103.923 12.0198V7.31982H104.764V13.3198H103.923L100.662 8.41982V13.3198H99.926Z" fill="white" stroke="white" stroke-width="0.2"/>
</g>
<defs>
<clipPath id="clip0_2060_2735">
<rect width="142" height="40" fill="white"/>
</clipPath>
</defs>
</svg>
