<svg width="20" height="19" viewBox="0 0 20 19" fill="none" xmlns="http://www.w3.org/2000/svg">
<path d="M12.365 1.48287C12.9807 1.17609 13.6633 1.01043 14.3589 1.00024C15.6444 1.05616 16.8487 1.59832 17.7141 2.49955C18.5837 3.40525 19.041 4.59952 18.9971 5.82016L18.9965 5.83815V5.85614C18.9965 6.93803 18.5707 8.12171 17.8262 9.34708C17.0863 10.5648 16.0742 11.7536 15.0064 12.8261C12.8708 14.9711 10.6109 16.5536 10.1573 16.8635L10 16.9709L9.8427 16.8635C9.84264 16.8634 9.84259 16.8634 9.84253 16.8634C9.38852 16.5532 7.12893 14.9708 4.9936 12.8261C3.92582 11.7536 2.91373 10.5648 2.17383 9.34708C1.42927 8.12171 1.00355 6.93803 1.00355 5.85614V5.83815L1.0029 5.82016C0.958952 4.59952 1.41627 3.40525 2.28591 2.49955C3.15126 1.59832 4.35563 1.05616 5.64107 1.00024C6.33674 1.01043 7.01932 1.17609 7.63503 1.48287C8.25772 1.79312 8.79326 2.23829 9.20083 2.78015L10 3.84266L10.7992 2.78015C11.2067 2.23829 11.7423 1.79312 12.365 1.48287Z" stroke="black" stroke-width="2"/>
</svg>
