<svg width="23" height="21" viewBox="0 0 23 21" fill="none" xmlns="http://www.w3.org/2000/svg">
<path d="M11.5 20.9091L10.6704 20.3426C9.57827 19.5964 0.00408017 12.8748 0.00408017 6.73457C-0.0578635 5.01412 0.587563 3.33995 1.79928 2.07799C3.011 0.816032 4.69045 0.0689342 6.47054 0C7.45311 0.00933084 8.41978 0.240838 9.29314 0.675985C10.1665 1.11113 10.9223 1.73783 11.5 2.50591C12.0777 1.73783 12.8335 1.11113 13.7069 0.675985C14.5802 0.240838 15.5469 0.00933084 16.5295 0C18.3096 0.0689342 19.989 0.816032 21.2007 2.07799C22.4124 3.33995 23.0579 5.01412 22.9959 6.73457C22.9959 12.8748 13.4217 19.5964 12.3296 20.3426L11.5 20.9091Z" fill="#FF5353"/>
</svg>
