<svg width="25" height="24" viewBox="0 0 25 24" fill="none" xmlns="http://www.w3.org/2000/svg">
<g id="instagram 1" clip-path="url(#clip0_2071_4219)">
<g id="Group">
<path id="Vector" d="M12.5 2.15C15.8333 2.15 16.25 2.15 17.5521 2.2C18.75 2.3 19.4271 2.5 19.8958 2.65C20.4688 2.85 20.8854 3.15 21.3542 3.55C21.7708 3.95 22.0833 4.35 22.2917 4.95C22.4479 5.35 22.6562 6 22.7083 7.2C22.7604 8.45 22.7604 8.85 22.7604 12.05C22.7604 15.25 22.7604 15.65 22.7083 16.9C22.6562 18.05 22.4479 18.7 22.2917 19.15C22.0833 19.7 21.7708 20.1 21.3542 20.55C20.9375 20.95 20.5208 21.25 19.8958 21.45C19.4792 21.6 18.8021 21.8 17.5521 21.85C16.25 21.9 15.8333 21.9 12.5 21.9C9.16667 21.9 8.75 21.9 7.44792 21.85C6.25 21.8 5.57292 21.6 5.10417 21.45C4.53125 21.25 4.11458 20.95 3.64583 20.55C3.22917 20.15 2.91667 19.75 2.70833 19.15C2.60417 18.65 2.39583 18 2.34375 16.85C2.29167 15.6 2.29167 15.2 2.29167 12C2.29167 8.8 2.29167 8.4 2.34375 7.15C2.39583 6 2.60417 5.35 2.76042 4.9C2.96875 4.35 3.28125 3.95 3.69792 3.5C4.11458 3.1 4.53125 2.8 5.15625 2.6C5.57292 2.5 6.25 2.3 7.44792 2.25C8.75 2.15 9.16667 2.15 12.5 2.15ZM12.5 0C9.11458 0 8.69792 0 7.34375 0.05C5.98958 0.1 5.10417 0.3 4.32292 0.6C3.48958 0.95 2.8125 1.35 2.08333 2C1.40625 2.7 0.989583 3.35 0.677083 4.15C0.364583 4.9 0.15625 5.8 0.104167 7.05C0 8.35 0 8.75 0 12C0 15.25 0 15.65 0.0520833 16.95C0.104167 18.25 0.3125 19.1 0.625 19.85C0.989583 20.65 1.40625 21.3 2.08333 22C2.76042 22.65 3.48958 23.1 4.32292 23.4C5.10417 23.7 6.04167 23.9 7.34375 23.95C8.69792 24 9.11458 24 12.5 24C15.8854 24 16.3021 24 17.6562 23.95C19.0104 23.9 19.8958 23.7 20.6771 23.4C21.5104 23.1 22.1875 22.7 22.9167 22C23.5938 21.35 24.0625 20.65 24.375 19.85C24.6875 19.1 24.8958 18.2 24.9479 16.95C25 15.65 25 15.25 25 12C25 8.75 25 8.35 24.9479 7.05C24.8958 5.75 24.6875 4.9 24.375 4.15C24.0104 3.35 23.5938 2.7 22.9167 2C22.2396 1.35 21.5104 0.9 20.6771 0.6C19.8958 0.3 18.9583 0.1 17.6562 0.05C16.3021 0 15.8854 0 12.5 0Z" fill="white"/>
<path id="Vector_2" d="M12.5 5.8501C8.95833 5.8501 6.09375 8.6001 6.09375 12.0001C6.09375 15.4001 8.95833 18.1501 12.5 18.1501C16.0417 18.1501 18.9062 15.4001 18.9062 12.0001C18.9062 8.6001 16.0417 5.8501 12.5 5.8501ZM12.5 16.0001C10.2083 16.0001 8.33333 14.2001 8.33333 12.0001C8.33333 9.8001 10.2083 8.0001 12.5 8.0001C14.7917 8.0001 16.6667 9.8001 16.6667 12.0001C16.6667 14.2001 14.7917 16.0001 12.5 16.0001Z" fill="white"/>
<path id="Vector_3" d="M19.1667 7.0499C20.0008 7.0499 20.6771 6.40072 20.6771 5.5999C20.6771 4.79909 20.0008 4.1499 19.1667 4.1499C18.3325 4.1499 17.6562 4.79909 17.6562 5.5999C17.6562 6.40072 18.3325 7.0499 19.1667 7.0499Z" fill="white"/>
</g>
</g>
<defs>
<clipPath id="clip0_2071_4219">
<rect width="25" height="24" fill="white"/>
</clipPath>
</defs>
</svg>
