<svg width="46" height="37" viewBox="0 0 46 37" fill="none" xmlns="http://www.w3.org/2000/svg">
<path d="M42.219 16.6623C40.0706 14.5138 37.168 13.5682 34.3555 13.8248V3.96429C34.3555 1.77838 32.5772 0 30.3914 0H3.90579C1.83952 0 0 1.73715 0 3.96429V30.3929C0 32.5788 1.77829 34.3572 3.96411 34.3572C31.3716 34.2662 30.5483 34.5746 31.8055 34.0949L34.3234 36.6129C34.8395 37.1291 35.6761 37.129 36.1921 36.6129L42.2191 30.5856C46.0664 26.7381 46.067 20.5104 42.219 16.6623ZM14.6231 2.64286H19.9086V9.25H14.6231V2.64286ZM3.96411 31.7143C3.23548 31.7143 2.64277 31.1215 2.64277 30.3929V3.96429C2.64277 3.23565 3.23556 2.64286 3.96411 2.64286H11.9804V10.5714C11.9804 11.3012 12.572 11.8929 13.3018 11.8929H21.23C21.9598 11.8929 22.5513 11.3012 22.5513 10.5714V2.64286H30.3915C31.1201 2.64286 31.7128 3.23565 31.7128 3.96429V14.44C30.467 14.9189 29.2994 15.6593 28.2965 16.6623C24.458 20.501 24.458 26.747 28.2965 30.5857L29.4249 31.7143H3.96411ZM40.3504 28.7169L35.2577 33.8099L30.165 28.7169C27.3504 25.9021 27.3501 21.3463 30.165 18.5311C32.9732 15.7229 37.5421 15.7228 40.3503 18.5311C43.1649 21.3458 43.1654 25.9018 40.3504 28.7169Z" fill="#009045"/>
<path d="M35.3018 19.4426C32.9799 19.4426 31.0911 21.3317 31.0911 23.6536C31.0911 25.9755 32.98 27.8646 35.3018 27.8646C37.6236 27.8646 39.5124 25.9756 39.5124 23.6536C39.5124 21.3317 37.6235 19.4426 35.3018 19.4426ZM35.3018 25.2218C34.4372 25.2218 33.7337 24.5183 33.7337 23.6536C33.7337 22.789 34.4371 22.0855 35.3018 22.0855C36.1664 22.0855 36.8698 22.7889 36.8698 23.6536C36.8697 24.5182 36.1663 25.2218 35.3018 25.2218Z" fill="#009045"/>
<path d="M14.6275 21.1428H6.69048C5.9607 21.1428 5.36914 21.7345 5.36914 22.4643C5.36914 23.194 5.9607 23.7857 6.69048 23.7857H14.6275C15.3573 23.7857 15.9489 23.194 15.9489 22.4643C15.9489 21.7345 15.3573 21.1428 14.6275 21.1428Z" fill="#009045"/>
<path d="M14.6187 26.4286H6.69048C5.9607 26.4286 5.36914 27.0202 5.36914 27.75C5.36914 28.4798 5.9607 29.0714 6.69048 29.0714H14.6187C15.3485 29.0714 15.94 28.4798 15.94 27.75C15.94 27.0202 15.3485 26.4286 14.6187 26.4286Z" fill="#009045"/>
</svg>
