<svg width="23" height="33" viewBox="0 0 23 33" fill="none" xmlns="http://www.w3.org/2000/svg">
<g id="Group">
<path id="Vector" d="M10.7026 32.2843C10.8803 32.5509 11.1796 32.7111 11.5 32.7111C11.8204 32.7111 12.1197 32.551 12.2974 32.2843C14.5654 28.8824 17.9059 24.681 20.2338 20.4081C22.0951 16.9916 23 14.0777 23 11.5C23 5.1589 17.8411 0 11.5 0C5.1589 0 0 5.1589 0 11.5C0 14.0777 0.904858 16.9916 2.7662 20.4081C5.09233 24.6778 8.43928 28.8895 10.7026 32.2843ZM11.5 1.91667C16.7843 1.91667 21.0833 6.21575 21.0833 11.5C21.0833 13.7491 20.2549 16.3631 18.5507 19.4912C16.5442 23.1743 13.6808 26.9104 11.5 30.0514C9.31954 26.9109 6.45597 23.1745 4.44929 19.4912C2.74511 16.3631 1.91667 13.7491 1.91667 11.5C1.91667 6.21575 6.21575 1.91667 11.5 1.91667Z" fill="currentColor"/>
<path id="Vector_2" d="M11.5 17.25C14.6706 17.25 17.25 14.6706 17.25 11.5C17.25 8.32945 14.6706 5.75 11.5 5.75C8.32945 5.75 5.75 8.32945 5.75 11.5C5.75 14.6706 8.32945 17.25 11.5 17.25ZM11.5 7.66667C13.6137 7.66667 15.3333 9.3863 15.3333 11.5C15.3333 13.6137 13.6137 15.3333 11.5 15.3333C9.3863 15.3333 7.66667 13.6137 7.66667 11.5C7.66667 9.3863 9.3863 7.66667 11.5 7.66667Z" fill="currentColor"/>
</g>
</svg>
