<svg width="23" height="23" viewBox="0 0 23 23" fill="none" xmlns="http://www.w3.org/2000/svg">
<path d="M20.9785 3.41406H2.02148C0.909129 3.41406 0 4.31919 0 5.43555V17.5645C0 18.6812 0.909713 19.5859 2.02148 19.5859H20.9785C22.0909 19.5859 23 18.6808 23 17.5645V5.43555C23 4.31892 22.0904 3.41406 20.9785 3.41406ZM20.6681 4.76172C20.0145 5.41744 12.3376 13.1194 12.0222 13.4359C11.7587 13.7001 11.2414 13.7003 10.9778 13.4359L2.33189 4.76172H20.6681ZM1.34766 17.3167V5.68329L7.1455 11.5L1.34766 17.3167ZM2.33189 18.2383L8.0969 12.4545L10.0234 14.3873C10.8128 15.1793 12.1875 15.179 12.9767 14.3873L14.9031 12.4545L20.6681 18.2383H2.33189ZM21.6523 17.3167L15.8545 11.5L21.6523 5.68329V17.3167Z" fill="black"/>
</svg>
