<svg width="16" height="16" viewBox="0 0 16 16" fill="none" xmlns="http://www.w3.org/2000/svg">
<g clip-path="url(#clip0_4003_851)">
<path d="M15.8599 4.65278L11.5265 0.152833C11.3852 0.00622851 11.1685 -0.0397915 10.9799 0.0361354C10.7906 0.112795 10.6666 0.296142 10.6666 0.500119V2.66684H10.4999C6.91598 2.66684 4 5.58283 4 9.16677V10.1668C4 10.3987 4.16333 10.592 4.38928 10.6448C4.42602 10.6541 4.46264 10.6581 4.49926 10.6581C4.68798 10.6581 4.86864 10.5474 4.95592 10.3734C5.89329 8.49808 7.77791 7.33342 9.87457 7.33342H10.6666V9.50002C10.6666 9.70412 10.7906 9.88746 10.9799 9.96339C11.1673 10.04 11.3852 9.99342 11.5265 9.84669L15.8599 5.34674C16.0465 5.15278 16.0465 4.84748 15.8599 4.65278Z" fill="#1374AA"/>
<path d="M13.9998 15.9999H1.99998C0.897329 15.9999 0 15.1027 0 14V4.66682C0 3.56417 0.897329 2.66684 1.99998 2.66684H3.99995C4.3686 2.66684 4.66657 2.96481 4.66657 3.33346C4.66657 3.70211 4.3686 4.00008 3.99995 4.00008H1.99998C1.63194 4.00008 1.33324 4.29878 1.33324 4.66682V14C1.33324 14.368 1.63194 14.6667 1.99998 14.6667H13.9998C14.3678 14.6667 14.6665 14.368 14.6665 14V8.66677C14.6665 8.29812 14.9644 8.00003 15.3331 8.00003C15.7018 8.00003 15.9998 8.29812 15.9998 8.66677V14C15.9998 15.1027 15.1025 15.9999 13.9998 15.9999Z" fill="#1374AA"/>
</g>
<defs>
<clipPath id="clip0_4003_851">
<rect width="16" height="16" fill="white"/>
</clipPath>
</defs>
</svg>
