<svg width="22" height="22" viewBox="0 0 22 22" fill="none" xmlns="http://www.w3.org/2000/svg">
<path d="M17.1875 8.07812H15.639V4.5448C15.639 2.03878 13.5572 0 10.9984 0C8.43958 0 6.35779 2.03878 6.35779 4.5448V8.07812H4.8125C3.39092 8.07812 2.23438 9.23467 2.23438 10.6562V19.4219C2.23438 20.8435 3.39092 22 4.8125 22H17.1875C18.6091 22 19.7656 20.8435 19.7656 19.4219V10.6562C19.7656 9.23467 18.6091 8.07812 17.1875 8.07812ZM8.07654 4.5448C8.07654 2.9865 9.3873 1.71875 10.9984 1.71875C12.6095 1.71875 13.9203 2.9865 13.9203 4.5448V8.07812H8.07654V4.5448ZM18.0469 19.4219C18.0469 19.8957 17.6614 20.2812 17.1875 20.2812H4.8125C4.33864 20.2812 3.95312 19.8957 3.95312 19.4219V10.6562C3.95312 10.1824 4.33864 9.79688 4.8125 9.79688H17.1875C17.6614 9.79688 18.0469 10.1824 18.0469 10.6562V19.4219Z" fill="white"/>
<path d="M11 12.2891C10.1219 12.2891 9.41016 13.0008 9.41016 13.8789C9.41016 14.4396 9.70062 14.9321 10.139 15.2151V17.1016C10.139 17.5762 10.5238 17.9609 10.9984 17.9609C11.473 17.9609 11.8578 17.5762 11.8578 17.1016V15.2172C12.298 14.9344 12.5898 14.4409 12.5898 13.8789C12.5898 13.0008 11.8781 12.2891 11 12.2891Z" fill="white"/>
</svg>
