<svg width="41" height="37" viewBox="0 0 41 37" fill="none" xmlns="http://www.w3.org/2000/svg">
<path d="M40.048 10.276C40.0387 10.2662 40.0291 10.2566 40.0193 10.2473L31.7075 2.85995C31.6317 2.79082 31.5432 2.73719 31.4468 2.70193L25.4342 0.552868C25.024 0.403935 24.5708 0.61578 24.4219 1.02594C24.395 1.09991 24.3794 1.17744 24.3754 1.25605C24.3754 1.42987 24.1147 5.43566 20.1089 5.49887C16.0794 5.43566 15.8266 1.42987 15.8187 1.25605C15.7954 0.820316 15.4233 0.486006 14.9875 0.509314C14.9127 0.513363 14.8387 0.52798 14.7679 0.552868L8.76314 2.72563C8.66675 2.76089 8.57826 2.81452 8.50241 2.88365L0.245907 10.2473C-0.0704275 10.5479 -0.0832665 11.048 0.217266 11.3643C0.22655 11.3741 0.23613 11.3837 0.245907 11.393L6.81951 18.0377V36.2099C6.81951 36.6462 7.17327 37 7.6096 37H32.6556C33.092 37 33.4457 36.6462 33.4457 36.2099V18.0377L40.0193 11.393C40.3357 11.0925 40.3485 10.5924 40.048 10.276ZM33.422 15.7859V12.1199C33.422 11.6835 33.0683 11.3298 32.6319 11.3298C32.1956 11.3298 31.8419 11.6835 31.8419 12.1199V35.3803H8.3681V12.1199C8.3681 11.6835 8.01433 11.3298 7.578 11.3298C7.14167 11.3298 6.7879 11.6835 6.7879 12.1199V15.7938L1.92881 10.8715L9.45053 4.1399L14.3965 2.35429C15.0092 5.51131 18.0652 7.57396 21.2223 6.96124C23.5537 6.50871 25.3767 4.68576 25.8292 2.35429L30.7752 4.1399L38.2732 10.8715L33.422 15.7859Z" fill="black"/>
</svg>
