<svg width="39" height="36" viewBox="0 0 39 36" fill="none" xmlns="http://www.w3.org/2000/svg">
<path d="M30.164 8.55397H31.5146C31.5146 8.19576 31.3723 7.85222 31.119 7.59893C30.8658 7.34564 30.5222 7.20334 30.164 7.20334V8.55397ZM8.55397 8.55397V7.20334C8.19576 7.20334 7.85222 7.34564 7.59893 7.59893C7.34564 7.85222 7.20334 8.19576 7.20334 8.55397H8.55397ZM28.8134 8.55397V15.7573H31.5146V8.55397H28.8134ZM28.8134 15.7573V30.164H31.5146V15.7573H28.8134ZM26.5623 32.415H12.1556V35.1163H26.5623V32.415ZM9.90459 30.164V8.55397H7.20334V30.164H9.90459ZM8.55397 9.90459H30.164V7.20334H8.55397V9.90459ZM8.55397 2.70125H30.164V0H8.55397V2.70125ZM2.70125 8.55397C2.70125 5.32161 5.32159 2.70125 8.55397 2.70125V0C3.82975 0 0 3.82975 0 8.55397H2.70125ZM8.55397 14.4067C5.32159 14.4067 2.70125 11.7863 2.70125 8.55397H0C0 13.2782 3.82975 17.1079 8.55397 17.1079V14.4067ZM36.0167 8.55397C36.0167 11.7863 33.3963 14.4067 30.164 14.4067V17.1079C34.8883 17.1079 38.7179 13.2782 38.7179 8.55397H36.0167ZM38.7179 8.55397C38.7179 3.82975 34.8883 0 30.164 0V2.70125C33.3963 2.70125 36.0167 5.32161 36.0167 8.55397H38.7179ZM28.8134 30.164C28.8134 31.4073 27.8056 32.415 26.5623 32.415V35.1163C29.2974 35.1163 31.5146 32.8991 31.5146 30.164H28.8134ZM12.1556 32.415C10.9124 32.415 9.90459 31.4073 9.90459 30.164H7.20334C7.20334 32.8991 9.42056 35.1163 12.1556 35.1163V32.415Z" fill="white"/>
<path d="M23.9162 23.9157C24.4436 23.3882 24.4436 22.5332 23.9162 22.0057C23.3887 21.4783 22.5337 21.4783 22.0062 22.0057L23.9162 23.9157ZM16.7128 22.0057C16.1854 21.4783 15.3303 21.4783 14.8028 22.0057C14.2754 22.5332 14.2754 23.3882 14.8028 23.9157L16.7128 22.0057ZM20.7101 15.7574C20.7101 15.0115 20.1054 14.4067 19.3595 14.4067C18.6136 14.4067 18.0089 15.0115 18.0089 15.7574H20.7101ZM18.0089 24.7615C18.0089 25.5074 18.6136 26.1122 19.3595 26.1122C20.1054 26.1122 20.7101 25.5074 20.7101 24.7615H18.0089ZM22.0062 22.0057L19.6779 24.334L21.5879 26.244L23.9162 23.9157L22.0062 22.0057ZM19.0411 24.334L16.7128 22.0057L14.8028 23.9157L17.1312 26.244L19.0411 24.334ZM19.6779 24.334C19.502 24.5098 19.2171 24.5098 19.0411 24.334L17.1312 26.244C18.3619 27.4747 20.3572 27.4747 21.5879 26.244L19.6779 24.334ZM18.0089 15.7574V24.7615H20.7101V15.7574H18.0089Z" fill="white"/>
</svg>
