<svg width="44" height="44" viewBox="0 0 44 44" fill="none" xmlns="http://www.w3.org/2000/svg">
<g clip-path="url(#clip0_337_501)">
<path d="M41.5041 12.5711C40.8917 12.5825 40.284 12.6796 39.6985 12.8597C39.3808 12.9628 39.1716 13.266 39.1879 13.5997V15.531C37.7539 16.4619 36.0633 16.9175 34.3558 16.8334C33.86 16.8334 33.4678 16.8334 33.2384 16.7816L28.3989 12.2011C28.029 11.8871 27.5508 11.7304 27.0669 11.7645C24.4399 11.7645 18.4386 14.7245 15.2714 16.5818C11.5122 18.8018 3.89033 20.0894 3.81633 20.1042L3.66093 20.1486C-0.194424 21.747 -0.290622 24.9289 0.219972 26.4533C1.28556 31.9219 13.34 32.2401 16.0854 32.2401H42.5179C42.9266 32.2401 43.2579 31.9087 43.2579 31.5001V27.5559C43.6438 27.1107 43.8997 26.568 43.9979 25.9871C44.0007 25.9502 44.0007 25.913 43.9979 25.8761V14.7762C43.9757 13.3851 43.0359 12.5711 41.5041 12.5711ZM12.0154 19.6084L12.9922 21.3844C13.1966 21.742 13.6521 21.8662 14.0097 21.6619C14.3673 21.4575 14.4915 21.002 14.2872 20.6444L13.4214 19.0682C14.0504 18.824 14.6498 18.565 15.2048 18.2838L16.4406 20.1708C16.6597 20.5158 17.117 20.6178 17.462 20.3987C17.8069 20.1796 17.909 19.7223 17.6899 19.3773C17.6855 19.3704 17.681 19.3636 17.6764 19.3569L16.5072 17.5735C17.04 17.2701 17.5876 16.9667 18.1574 16.6707L19.6374 18.8315C19.8529 19.1787 20.3091 19.2856 20.6563 19.0701C21.0036 18.8545 21.1104 18.3983 20.8949 18.0511C20.8814 18.0293 20.8667 18.0082 20.8509 17.9879L19.4598 15.9899C20.1183 15.6643 20.7843 15.3461 21.4281 15.0575L23.1597 17.5735C23.3865 17.9135 23.846 18.0053 24.186 17.7785C24.526 17.5517 24.6178 17.0922 24.391 16.7522C24.3876 16.7472 24.3842 16.7422 24.3808 16.7373L22.8416 14.5173C24.1722 13.8914 25.5932 13.4793 27.0522 13.2964C27.1577 13.282 27.2648 13.282 27.3704 13.2964L30.3303 16.0713C27.4087 19.9891 23.3368 22.8969 18.6829 24.3888C16.6355 23.722 14.5255 23.2658 12.3855 23.0273C10.4825 22.8936 8.66984 22.1634 7.20559 20.9405C8.68548 20.6148 10.3653 20.1708 12.0154 19.6084ZM4.14193 21.5694C4.32693 21.5694 4.80052 21.451 5.45171 21.3178C7.28365 23.1783 9.7296 24.3093 12.3336 24.4997C14.7682 24.6181 19.9038 26.2609 23.4335 27.4597H20.1923C6.7911 27.5115 2.76554 26.4533 1.56676 25.7133C1.39656 25.0473 1.15976 22.82 4.14193 21.5694ZM41.7779 30.7527H16.4406C13.1846 30.7971 5.42211 30.2865 2.63974 27.7409C4.94852 28.3551 9.75107 28.9915 20.2367 28.9915C22.6935 28.9915 25.1725 28.9915 27.5257 28.9027C29.7456 28.8509 31.8398 28.7843 33.712 28.7103C38.2555 28.5401 41.4301 28.3551 41.4671 28.3477C41.5706 28.3546 41.6744 28.3546 41.7779 28.3477V30.7527ZM42.5179 25.8095C42.4735 26.0241 42.2441 26.8751 41.4079 26.8751C41.3561 26.8751 38.6403 27.0379 34.6518 27.2007C36.08 22.1244 40.6087 20.4446 42.5179 19.9636V25.8095ZM33.0978 27.2599C31.418 27.3191 29.568 27.3783 27.6293 27.4227C26.9707 27.1711 24.1735 26.1351 21.0359 25.1287C25.1362 23.4189 28.7107 20.6538 31.3958 17.1146L32.3652 18.047C32.4756 18.1505 32.615 18.2177 32.7648 18.2394C33.2825 18.3068 33.8041 18.3389 34.3262 18.3356C36.1022 18.3356 38.5959 17.9952 40.3941 16.382C40.5491 16.2422 40.6379 16.0432 40.6383 15.8344V14.1399C40.9112 14.0844 41.1887 14.0546 41.4671 14.0511C42.4809 14.0511 42.4957 14.4951 42.5031 14.791L42.5179 18.4466C40.5569 18.9128 34.6296 20.822 33.0978 27.2599Z" fill="black"/>
</g>
<defs>
<clipPath id="clip0_337_501">
<rect width="44" height="44" fill="white"/>
</clipPath>
</defs>
</svg>
