<svg width="21" height="20" viewBox="0 0 21 20" fill="none" xmlns="http://www.w3.org/2000/svg">
<g id="Group">
<path id="Vector" d="M16.9146 13.4576H7.97314C7.36861 13.4573 6.78283 13.2478 6.31531 12.8645C5.84779 12.4813 5.52736 11.948 5.40847 11.3553L3.64636 2.55344H0.872334C0.640977 2.55344 0.419095 2.46153 0.255501 2.29794C0.0919064 2.13434 0 1.91246 0 1.68111C0 1.44975 0.0919064 1.22787 0.255501 1.06427C0.419095 0.900678 0.640977 0.808771 0.872334 0.808771H4.36167C4.56575 0.804656 4.76481 0.872236 4.9242 0.99975C5.0836 1.12726 5.19322 1.30663 5.23401 1.50664L7.11825 11.0151C7.15903 11.2151 7.26866 11.3945 7.42805 11.522C7.58744 11.6495 7.7865 11.7171 7.99058 11.713H16.9146C17.1174 11.7175 17.3155 11.6511 17.4747 11.5253C17.6339 11.3996 17.7443 11.2222 17.7869 11.0238L19.1914 4.4813C19.2191 4.35247 19.2172 4.21904 19.186 4.09103C19.1547 3.96302 19.0949 3.84375 19.0109 3.74217C18.927 3.6406 18.8211 3.55936 18.7013 3.50457C18.5815 3.44977 18.4508 3.42283 18.319 3.42577H17.4467C17.2153 3.42577 16.9935 3.33387 16.8299 3.17027C16.6663 3.00668 16.5744 2.7848 16.5744 2.55344C16.5744 2.32208 16.6663 2.1002 16.8299 1.93661C16.9935 1.77301 17.2153 1.68111 17.4467 1.68111H18.319C18.7152 1.67196 19.1082 1.75289 19.4685 1.91778C19.8288 2.08267 20.1469 2.32722 20.3989 2.63299C20.6509 2.93875 20.8302 3.29775 20.9233 3.68291C21.0163 4.06806 21.0207 4.46932 20.936 4.8564L19.5141 11.3989C19.3852 11.9895 19.0559 12.5173 18.582 12.8925C18.1081 13.2678 17.519 13.4675 16.9146 13.4576Z" fill="black"/>
<path id="Vector_2" d="M8.72345 20.0001C8.20586 20.0001 7.69988 19.8466 7.26952 19.5591C6.83916 19.2715 6.50373 18.8628 6.30565 18.3846C6.10758 17.9064 6.05575 17.3802 6.15673 16.8726C6.25771 16.3649 6.50695 15.8986 6.87295 15.5326C7.23894 15.1666 7.70525 14.9174 8.2129 14.8164C8.72055 14.7154 9.24674 14.7672 9.72493 14.9653C10.2031 15.1634 10.6118 15.4988 10.8994 15.9292C11.187 16.3596 11.3405 16.8655 11.3405 17.3831C11.3405 18.0772 11.0647 18.7428 10.574 19.2336C10.0832 19.7244 9.41752 20.0001 8.72345 20.0001ZM8.72345 16.5108C8.55092 16.5108 8.38226 16.5619 8.23881 16.6578C8.09535 16.7537 7.98354 16.8899 7.91752 17.0493C7.85149 17.2087 7.83422 17.3841 7.86788 17.5533C7.90154 17.7225 7.98462 17.878 8.10662 18C8.22861 18.122 8.38405 18.205 8.55327 18.2387C8.72248 18.2724 8.89788 18.2551 9.05728 18.189C9.21668 18.123 9.35292 18.0112 9.44877 17.8678C9.54462 17.7243 9.59578 17.5556 9.59578 17.3831C9.59578 17.1518 9.50388 16.9299 9.34028 16.7663C9.17669 16.6027 8.95481 16.5108 8.72345 16.5108Z" fill="black"/>
<path id="Vector_3" d="M16.5743 20.0001C16.0567 20.0001 15.5507 19.8466 15.1204 19.5591C14.69 19.2715 14.3546 18.8628 14.1565 18.3846C13.9584 17.9064 13.9066 17.3802 14.0076 16.8726C14.1085 16.3649 14.3578 15.8986 14.7238 15.5326C15.0898 15.1666 15.5561 14.9174 16.0637 14.8164C16.5714 14.7154 17.0976 14.7672 17.5758 14.9653C18.054 15.1634 18.4627 15.4988 18.7502 15.9292C19.0378 16.3596 19.1913 16.8655 19.1913 17.3831C19.1913 18.0772 18.9156 18.7428 18.4248 19.2336C17.934 19.7244 17.2684 20.0001 16.5743 20.0001ZM16.5743 16.5108C16.4017 16.5108 16.2331 16.5619 16.0896 16.6578C15.9462 16.7537 15.8344 16.8899 15.7683 17.0493C15.7023 17.2087 15.685 17.3841 15.7187 17.5533C15.7524 17.7225 15.8354 17.878 15.9574 18C16.0794 18.122 16.2349 18.205 16.4041 18.2387C16.5733 18.2724 16.7487 18.2551 16.9081 18.189C17.0675 18.123 17.2037 18.0112 17.2996 17.8678C17.3955 17.7243 17.4466 17.5556 17.4466 17.3831C17.4466 17.1518 17.3547 16.9299 17.1911 16.7663C17.0275 16.6027 16.8056 16.5108 16.5743 16.5108Z" fill="black"/>
<path id="Vector_4" d="M14.8297 6.91508H9.59572C9.36437 6.91508 9.14248 6.82317 8.97889 6.65958C8.8153 6.49598 8.72339 6.2741 8.72339 6.04274C8.72339 5.81139 8.8153 5.58951 8.97889 5.42591C9.14248 5.26232 9.36437 5.17041 9.59572 5.17041H14.8297C15.0611 5.17041 15.283 5.26232 15.4466 5.42591C15.6102 5.58951 15.7021 5.81139 15.7021 6.04274C15.7021 6.2741 15.6102 6.49598 15.4466 6.65958C15.283 6.82317 15.0611 6.91508 14.8297 6.91508Z" fill="black"/>
<path id="Vector_5" d="M12.2127 9.53214C11.9813 9.53214 11.7594 9.44024 11.5958 9.27664C11.4322 9.11305 11.3403 8.89117 11.3403 8.65981V3.4258C11.3403 3.19444 11.4322 2.97256 11.5958 2.80897C11.7594 2.64537 11.9813 2.55347 12.2127 2.55347C12.444 2.55347 12.6659 2.64537 12.8295 2.80897C12.9931 2.97256 13.085 3.19444 13.085 3.4258V8.65981C13.085 8.89117 12.9931 9.11305 12.8295 9.27664C12.6659 9.44024 12.444 9.53214 12.2127 9.53214Z" fill="black"/>
</g>
</svg>
