<svg width="23" height="23" viewBox="0 0 23 23" fill="none" xmlns="http://www.w3.org/2000/svg">
<g id="Group">
<g id="Group_2">
<path id="Vector" d="M9.07349 22.3682C7.79934 22.3682 6.7627 21.3315 6.7627 20.0574C6.7627 18.7832 7.79934 17.7469 9.07349 17.7469C10.3476 17.7469 11.3843 18.7832 11.3843 20.0574C11.3843 21.3315 10.3476 22.3682 9.07349 22.3682ZM9.07349 19.1973C8.59922 19.1973 8.21306 19.5831 8.21306 20.0574C8.21306 20.532 8.59886 20.9178 9.07349 20.9178C9.54812 20.9178 9.93392 20.532 9.93392 20.0574C9.93392 19.5831 9.54812 19.1973 9.07349 19.1973Z" fill="black"/>
<path id="Vector_2" d="M17.1063 22.3682C15.8322 22.3682 14.7959 21.3315 14.7959 20.0574C14.7959 18.7832 15.8322 17.7469 17.1063 17.7469C18.3805 17.7469 19.4171 18.7832 19.4171 20.0574C19.4171 21.3315 18.3801 22.3682 17.1063 22.3682ZM17.1063 19.1973C16.6321 19.1973 16.2463 19.5831 16.2463 20.0574C16.2463 20.532 16.6321 20.9178 17.1063 20.9178C17.581 20.9178 17.9668 20.532 17.9668 20.0574C17.9668 19.5831 17.5806 19.1973 17.1063 19.1973Z" fill="black"/>
</g>
<path id="Vector_3" d="M18.7982 15.9557H7.40593C6.29749 15.9557 5.35076 15.2012 5.10347 14.1207L2.73901 3.79514C2.70783 3.6588 2.61356 3.54205 2.48665 3.48331L0.525394 2.57429C0.0714293 2.36399 -0.126183 1.82518 0.0841199 1.37085C0.294423 0.916888 0.833596 0.719276 1.28756 0.929579L3.24882 1.8386C3.88081 2.13121 4.3511 2.71135 4.50628 3.39049L6.87074 13.7167C6.92803 13.9676 7.14812 14.1431 7.40593 14.1431H18.7982C19.0549 14.1431 19.2746 13.9687 19.3334 13.7185L21.1717 5.80933C21.2243 5.58453 21.1286 5.421 21.0673 5.34377C21.0056 5.26617 20.8679 5.13636 20.6373 5.13636H7.22137C6.72063 5.13636 6.31489 4.73062 6.31489 4.22989C6.31489 3.72915 6.72063 3.32341 7.22137 3.32341H20.6373C21.3621 3.32341 22.0358 3.64865 22.4868 4.21611C22.9379 4.78356 23.1018 5.51382 22.9379 6.21979L21.0992 14.1294C20.8486 15.2044 19.9026 15.9557 18.7982 15.9557Z" fill="black"/>
</g>
</svg>
