<svg width="22" height="28" viewBox="0 0 22 28" fill="none" xmlns="http://www.w3.org/2000/svg">
<path d="M9.41524 0.000854492H0.871467C0.399584 0.000854492 0.0170898 0.383348 0.0170898 0.855232V26.4865C0.0170898 26.9584 0.399584 27.3409 0.871467 27.3409H9.41524C9.88712 27.3409 10.2696 26.9584 10.2696 26.4865V0.855232C10.2696 0.383348 9.88707 0.000854492 9.41524 0.000854492ZM8.56086 25.6322H1.72584V23.069H5.99773V21.3603H1.72584V18.7971H4.28897V17.0884H1.72584V14.5253H5.99773V12.8165H1.72584V10.2534H4.28897V8.54462H1.72584V5.98149H5.99773V4.27274H1.72584V1.70961H8.56086V25.6322Z" fill="black"/>
<path d="M20.7784 21.6164L17.9589 24.4273V2.91412L20.7698 5.72502L21.9745 4.52035L17.7026 0.248464C17.3694 -0.0828212 16.8312 -0.0828212 16.498 0.248464L12.2261 4.52035L13.4307 5.72502L16.2502 2.91412V24.4273L13.4393 21.6164L12.2346 22.8211L16.5065 27.093C16.8398 27.4243 17.3779 27.4243 17.7112 27.093L21.9831 22.8211L20.7784 21.6164Z" fill="black"/>
</svg>
