<svg width="13" height="15" viewBox="0 0 13 15" fill="none" xmlns="http://www.w3.org/2000/svg">
<g clip-path="url(#clip0_4003_578)">
<path d="M0.965135 5.89673C1.04372 5.62286 1.25934 5.42834 1.51442 5.40244L4.97943 5.04797L6.34959 1.4349C6.45062 1.17011 6.6807 0.998711 6.93634 0.998711C7.19198 0.998711 7.42207 1.17011 7.52309 1.43552L8.89325 5.04797L12.3588 5.40244C12.6134 5.42896 12.8285 5.62285 12.9075 5.89673C12.9866 6.1706 12.9136 6.47099 12.721 6.66035L10.1018 9.2482L10.8742 13.0811C10.9307 13.3629 10.8336 13.6542 10.626 13.8232C10.5145 13.914 10.3839 13.9603 10.2523 13.9603C10.1388 13.9603 10.0263 13.9258 9.92524 13.8577L6.93634 11.8451L3.94854 13.8577C3.72991 14.0059 3.4543 13.9924 3.2472 13.8232C3.03956 13.6537 2.94256 13.3623 2.99908 13.0811L3.7714 9.2482L1.15226 6.66087C0.959639 6.47099 0.886089 6.17112 0.965135 5.89673Z" fill="#FFC107"/>
</g>
<defs>
<clipPath id="clip0_4003_578">
<rect width="12.0051" height="13.5253" fill="white" transform="matrix(-1 8.74228e-08 8.74228e-08 1 12.939 0.708504)"/>
</clipPath>
</defs>
</svg>
