<svg width="20" height="23" viewBox="0 0 20 23" fill="none" xmlns="http://www.w3.org/2000/svg">
<g clip-path="url(#clip0_2187_1915)">
<path d="M18.9852 9.09332L18.9855 9.0943C19.0268 9.24082 18.974 9.36978 18.9268 9.41719L18.9261 9.41796L14.5627 13.8178L14.1889 14.1948L14.2917 14.7156L15.5783 21.233C15.6057 21.3722 15.5566 21.4762 15.5197 21.5196L10.5667 18.1141L10.0002 17.7246L9.43368 18.114L4.47909 21.5193C4.44313 21.4771 4.39347 21.3736 4.42109 21.2327C4.4211 21.2327 4.42111 21.2326 4.42112 21.2326L5.7076 14.7156L5.8104 14.1948L5.43664 13.8179L1.07328 9.41715L1.07149 9.41535C1.02668 9.37039 0.972987 9.24198 1.01461 9.09477C1.03293 9.02997 1.06128 8.99487 1.07667 8.98072C1.07925 8.97834 1.08135 8.97662 1.08294 8.97541L6.84382 8.37395L7.46116 8.3095L7.67736 7.72767L9.95957 1.58572C9.95961 1.5856 9.95966 1.58548 9.9597 1.58537C9.97286 1.55019 9.98799 1.52655 10.0003 1.51152C10.0125 1.52646 10.0276 1.54993 10.0407 1.58478C10.0408 1.58498 10.0408 1.58518 10.0409 1.58538L12.3228 7.72762L12.539 8.30948L13.1564 8.37395L18.9181 8.97559C18.9196 8.97675 18.9215 8.97835 18.9238 8.9805C18.9392 8.99458 18.9672 9.02941 18.9852 9.09332Z" stroke="black" stroke-width="2"/>
</g>
<defs>
<clipPath id="clip0_2187_1915">
<rect width="20" height="23" fill="white"/>
</clipPath>
</defs>
</svg>
