<svg width="16" height="18" viewBox="0 0 16 18" fill="none" xmlns="http://www.w3.org/2000/svg">
<path d="M2.09219 2.26928L5.15483 2.26928L5.48964 1.26524C5.70042 0.633412 6.2895 0.208863 6.95549 0.208863L9.59138 0.208863C10.2574 0.208863 10.8465 0.633412 11.0577 1.26524L11.3922 2.26928L14.4547 2.26928C15.3068 2.26928 16 2.96247 16 3.81459L16 4.8448C16 5.41856 15.4835 5.3599 14.9292 5.3599C10.1712 5.3599 5.85733 5.35991 1.06198 5.35991C0.777264 5.35991 0.546875 5.12952 0.546875 4.8448L0.546875 3.81459C0.546875 2.96247 1.24007 2.26928 2.09219 2.26928ZM10.3059 2.26928L10.0803 1.5912C10.0099 1.38042 9.81322 1.23907 9.59138 1.23907L6.95549 1.23907C6.73365 1.23907 6.53695 1.38042 6.46704 1.5912L6.24118 2.26928L10.3059 2.26928Z" fill="black"/>
<path d="M14.8438 6.45877L14.0224 16.3856C13.9495 17.1869 13.288 17.7911 12.4836 17.7911L4.06289 17.7911C3.25854 17.7911 2.59705 17.1869 2.52363 16.3811L1.70275 6.45877L14.8438 6.45877ZM10.8488 15.2155C10.8488 15.8946 11.879 15.8973 11.879 15.2155L11.879 8.00408C11.879 7.32507 10.8488 7.32229 10.8488 8.00408L10.8488 15.2155ZM7.75818 15.2155C7.75818 15.8946 8.78839 15.8973 8.78839 15.2155L8.78839 8.00408C8.78839 7.32507 7.75818 7.32229 7.75818 8.00408L7.75818 15.2155ZM4.66756 15.2155C4.66756 15.8946 5.69777 15.8973 5.69777 15.2155L5.69777 8.00408C5.69777 7.71937 5.46738 7.48898 5.18266 7.48898C4.89795 7.48898 4.66756 7.71937 4.66756 8.00408L4.66756 15.2155Z" fill="black"/>
</svg>
