<svg width="15" height="19" viewBox="0 0 15 19" fill="none" xmlns="http://www.w3.org/2000/svg">
<path d="M1.4293 2.28714L4.57411 2.28713L4.57411 1.71535C4.57411 0.769514 5.34362 8.32491e-07 6.28946 7.49803e-07L8.57659 5.49856e-07C9.52243 4.67168e-07 10.2919 0.769514 10.2919 1.71535L10.2919 2.28713L13.4368 2.28713C14.225 2.28713 14.8662 2.92839 14.8662 3.71659L14.8662 5.71783C14.8662 6.0336 14.6102 6.28962 14.2944 6.28962L13.9819 6.28962L13.488 16.6633C13.4443 17.5794 12.6917 18.2971 11.7746 18.2971L3.09148 18.2971C2.1743 18.2971 1.42169 17.5794 1.37809 16.6633L0.884104 6.28962L0.571624 6.28962C0.255857 6.28962 -0.000159094 6.0336 -0.000159121 5.71784L-0.000159296 3.71659C-0.000159365 2.92839 0.641096 2.28714 1.4293 2.28714ZM9.14838 1.71535C9.14838 1.40008 8.89186 1.14357 8.57659 1.14357L6.28946 1.14357C5.97419 1.14357 5.71768 1.40008 5.71768 1.71535L5.71768 2.28713L9.14838 2.28713L9.14838 1.71535ZM13.7226 3.71659C13.7226 3.55896 13.5944 3.4307 13.4368 3.4307L1.4293 3.4307C1.27167 3.4307 1.14341 3.55896 1.14341 3.71659L1.14341 5.14605C1.31962 5.14605 12.9924 5.14605 13.7226 5.14605L13.7226 3.71659ZM2.52037 16.6089C2.53492 16.9143 2.78579 17.1535 3.09147 17.1535L11.7746 17.1535C12.0803 17.1535 12.3312 16.9143 12.3457 16.6089L12.8371 6.28962L2.02896 6.28962L2.52037 16.6089Z" fill="#8B8B8B"/>
<path d="M7.4331 16.01C7.11733 16.01 6.86132 15.754 6.86132 15.4382L6.86132 8.00501C6.86132 7.68924 7.11733 7.43323 7.4331 7.43323C7.74887 7.43323 8.00488 7.68924 8.00488 8.00501L8.00488 15.4382C8.00488 15.754 7.7489 16.01 7.4331 16.01Z" fill="#8B8B8B"/>
<path d="M4.57421 16.01C4.25845 16.01 4.00243 15.754 4.00243 15.4382L4.00243 8.00501C4.00243 7.68924 4.25845 7.43323 4.57421 7.43323C4.88998 7.43323 5.146 7.68924 5.146 8.00501L5.146 15.4382C5.146 15.754 4.89002 16.01 4.57421 16.01Z" fill="#8B8B8B"/>
<path d="M10.292 16.01C9.97622 16.01 9.7202 15.754 9.7202 15.4382L9.7202 8.00501C9.7202 7.68924 9.97622 7.43323 10.292 7.43323C10.6078 7.43323 10.8638 7.68924 10.8638 8.00501L10.8638 15.4382C10.8638 15.754 10.6078 16.01 10.292 16.01Z" fill="#8B8B8B"/>
</svg>
