<svg width="25" height="25" viewBox="0 0 25 25" fill="none" xmlns="http://www.w3.org/2000/svg">
<path d="M18.4811 10.3613L11.6419 17.2005C11.1707 17.6717 10.4094 17.6717 9.93817 17.2005L6.51859 13.7809C6.04734 13.3096 6.04734 12.5484 6.51859 12.0771C6.98984 11.6059 7.75109 11.6059 8.22234 12.0771L10.784 14.6388L16.7653 8.65755C17.2365 8.1863 17.9978 8.1863 18.469 8.65755C18.9523 9.1288 18.9523 9.89005 18.4811 10.3613ZM2.83317 12.5C2.83317 9.68463 4.06567 7.15922 5.999 5.39505L7.84775 7.2438C8.22234 7.61838 8.87484 7.35255 8.87484 6.8088V1.62505C8.87484 1.28672 8.609 1.02088 8.27067 1.02088H3.08692C2.54317 1.02088 2.27734 1.67338 2.664 2.04797L4.28317 3.67922C1.91484 5.87838 0.416504 9.00797 0.416504 12.5C0.416504 18.2396 4.42817 23.0488 9.79317 24.2813C10.5544 24.4505 11.2915 23.8825 11.2915 23.0971C11.2915 22.5292 10.8928 22.0459 10.3369 21.913C6.04734 20.9342 2.83317 17.0917 2.83317 12.5ZM24.5832 12.5C24.5832 6.76047 20.5715 1.9513 15.2065 0.718799C14.4453 0.549632 13.7082 1.11755 13.7082 1.90297C13.7082 2.47088 14.1069 2.95422 14.6628 3.08713C18.9523 4.06588 22.1665 7.90838 22.1665 12.5C22.1665 15.3155 20.934 17.8409 19.0007 19.605L17.1519 17.7563C16.7773 17.3817 16.1248 17.6475 16.1248 18.1913V23.375C16.1248 23.7134 16.3907 23.9792 16.729 23.9792H21.9128C22.4565 23.9792 22.7223 23.3267 22.3357 22.9521L20.7165 21.3209C23.0848 19.1217 24.5832 15.9921 24.5832 12.5Z" fill="#3E3E3E"/>
</svg>
