<svg width="21" height="21" viewBox="0 0 21 21" fill="none" xmlns="http://www.w3.org/2000/svg">
<path d="M10.1624 0C6.91856 0 4.27235 2.65526 4.27235 5.89913C4.27235 7.88209 5.26459 9.639 6.77464 10.7077C3.25252 12.119 0.753906 15.5627 0.753906 19.5809C0.759296 19.8238 0.859545 20.0548 1.03319 20.2246C1.20684 20.3945 1.44007 20.4896 1.68296 20.4896C1.92586 20.4896 2.15909 20.3945 2.33274 20.2246C2.50638 20.0548 2.60663 19.8238 2.61202 19.5809C2.61202 15.3165 6.05042 11.8799 10.3149 11.8799C11.8034 11.8799 13.1852 12.3043 14.3613 13.0322C14.4655 13.0969 14.5814 13.1403 14.7023 13.1601C14.8233 13.18 14.947 13.1758 15.0663 13.1477C15.1857 13.1197 15.2983 13.0684 15.3978 12.9967C15.4973 12.9251 15.5816 12.8346 15.6461 12.7303C15.7105 12.626 15.7537 12.51 15.7733 12.389C15.7928 12.268 15.7883 12.1443 15.76 12.025C15.7317 11.9057 15.6801 11.7932 15.6083 11.6939C15.5364 11.5946 15.4456 11.5104 15.3412 11.4462C14.8112 11.1183 14.2359 10.8615 13.6428 10.6406C15.1041 9.56644 16.0616 7.84251 16.0616 5.89913C16.0616 2.65526 13.4063 0 10.1624 0ZM10.1624 1.85986C12.4021 1.85986 14.2035 3.65945 14.2035 5.89913C14.2035 8.1388 12.4021 9.93111 10.1624 9.93111C7.92276 9.93111 6.13047 8.1388 6.13047 5.89913C6.13047 3.65945 7.92276 1.85986 10.1624 1.85986ZM19.5655 13.0104C19.4145 13.0148 19.2668 13.0558 19.1353 13.1301C19.0038 13.2044 18.8923 13.3097 18.8107 13.4368L15.6079 18.2364L13.5992 16.8918C13.4974 16.8233 13.383 16.7756 13.2627 16.7514C13.1423 16.7272 13.0184 16.7269 12.898 16.7507C12.7776 16.7745 12.663 16.8219 12.561 16.89C12.4589 16.9582 12.3712 17.0458 12.3031 17.1479C12.2349 17.2499 12.1875 17.3644 12.1637 17.4848C12.1399 17.6052 12.1401 17.7292 12.1642 17.8495C12.1884 17.9699 12.236 18.0843 12.3045 18.1861C12.3729 18.288 12.4608 18.3754 12.5631 18.4432L15.3557 20.3014C15.4575 20.3688 15.5715 20.4157 15.6913 20.4391C15.8111 20.4625 15.9344 20.4619 16.054 20.4377C16.1737 20.4134 16.2874 20.3658 16.3886 20.2976C16.4899 20.2294 16.5767 20.1419 16.6441 20.0401L20.3621 14.464C20.4591 14.3223 20.5149 14.1565 20.5234 13.9851C20.5319 13.8136 20.4927 13.6431 20.4102 13.4926C20.3277 13.342 20.2051 13.2173 20.056 13.1322C19.9069 13.0471 19.7371 13.0049 19.5655 13.0104Z" fill="black"/>
</svg>
