<svg width="21" height="21" viewBox="0 0 21 21" fill="none" xmlns="http://www.w3.org/2000/svg">
<path d="M10.3584 0.841217C7.30327 0.841217 4.80249 3.34208 4.80249 6.3972C4.80249 8.26537 5.74119 9.91956 7.16602 10.926C3.84946 12.2554 1.4956 15.499 1.49561 19.2829C1.50068 19.5116 1.59509 19.7292 1.75864 19.8892C1.92218 20.0491 2.14185 20.1387 2.37061 20.1387C2.59937 20.1387 2.81903 20.0491 2.98257 19.8892C3.14612 19.7292 3.24053 19.5116 3.24561 19.2829C3.2456 15.2666 6.48394 12.03 10.5002 12.03C14.5166 12.03 17.7532 15.2666 17.7532 19.2829C17.7532 19.5152 17.8455 19.7379 18.0097 19.9022C18.174 20.0664 18.3967 20.1587 18.629 20.1587C18.8613 20.1587 19.0841 20.0664 19.2484 19.9022C19.4126 19.7379 19.5049 19.5152 19.5049 19.2829C19.5049 15.4273 17.0592 12.136 13.6431 10.8559C15.0123 9.84373 15.9058 8.22337 15.9058 6.3972C15.9058 3.34208 13.4135 0.841217 10.3584 0.841217ZM10.3584 2.59296C12.4678 2.59296 14.1558 4.28784 14.1558 6.3972C14.1558 8.50656 12.4678 10.1945 10.3584 10.1945C8.24904 10.1945 6.5542 8.50656 6.5542 6.3972C6.5542 4.28784 8.24904 2.59296 10.3584 2.59296Z" fill="black"/>
</svg>
