<svg width="24" height="24" viewBox="0 0 24 24" fill="none" xmlns="http://www.w3.org/2000/svg">
<path d="M19.9657 6.59549H18.786V4.25849C18.786 3.48449 18.4395 2.76224 17.8342 2.27849C17.229 1.79474 16.4513 1.61399 15.6952 1.78499L3.4785 4.52849C2.31375 4.79024 1.5 5.80724 1.5 7.00124V19.7437C1.5 21.141 2.637 22.278 4.03425 22.278H19.9657C21.363 22.278 22.5 21.141 22.5 19.7437V9.13049C22.5 7.73324 21.363 6.59549 19.9657 6.59549ZM21 19.7437C21 20.3137 20.5365 20.778 19.9657 20.778H4.03425C3.4635 20.778 3 20.3137 3 19.7437V7.00124C3 6.51374 3.3315 6.09899 3.807 5.99174L16.0245 3.24824C16.329 3.17849 16.65 3.25199 16.8975 3.44999C17.1443 3.64724 17.286 3.94199 17.286 4.25849V6.59624H5.964C5.54925 6.59624 5.214 6.93224 5.214 7.34624C5.214 7.76024 5.54925 8.09624 5.964 8.09624H19.9657C20.5365 8.09624 21 8.56049 21 9.13049V19.7437Z" fill="black"/>
<path d="M17.9198 13.2908C17.2568 13.2908 16.7168 13.83 16.7168 14.4938C16.7168 15.1575 17.2568 15.6968 17.9198 15.6968C18.5828 15.6968 19.1228 15.1575 19.1228 14.4938C19.1228 13.83 18.582 13.2908 17.9198 13.2908Z" fill="black"/>
</svg>
